<svg width="100%" viewBox="0 0 829 390" xmlns="http://www.w3.org/2000/svg" xmlns:xlink="http://www.w3.org/1999/xlink">
<g id="graph0" class="graph" transform="scale(1 1) rotate(0) translate(4 385.4)">

<polygon fill="#ffffff" stroke="transparent" points="-4,4 -4,-385.4 824.4775,-385.4 824.4775,4 -4,4"></polygon>
<text text-anchor="middle" x="410.2388" y="-363" font-family="Roboto Condensed, sans-serif" font-size="16.00" fill="#000000">egg-logger</text>
<!-- egg&#45;logger@2.4.1 -->
<g id="node1" class="node module-egg_logger maintainer-atian25 maintainer-coolme200 maintainer-dead_horse maintainer-eggjs_admin maintainer-fengmk2 maintainer-hyj1991 maintainer-killagu maintainer-popomore maintainer-thonatos maintainer-wanghx maintainer-xadillax license-mit">

<path fill="none" stroke="#000000" d="M79.1975,-204.3011C79.1975,-204.3011 6.5789,-204.3011 6.5789,-204.3011 3.3452,-204.3011 .1115,-201.0674 .1115,-197.8337 .1115,-197.8337 .1115,-191.3663 .1115,-191.3663 .1115,-188.1326 3.3452,-184.8989 6.5789,-184.8989 6.5789,-184.8989 79.1975,-184.8989 79.1975,-184.8989 82.4312,-184.8989 85.6649,-188.1326 85.6649,-191.3663 85.6649,-191.3663 85.6649,-197.8337 85.6649,-197.8337 85.6649,-201.0674 82.4312,-204.3011 79.1975,-204.3011"></path>
<text text-anchor="middle" x="42.8882" y="-191.3" font-family="Roboto Condensed, sans-serif" font-size="11.00" fill="#000000">egg-logger@2.4.1</text>
</g>
<!-- depd@2.0.0 -->
<g id="node2" class="node module-depd maintainer-dougwilson license-mit">

<path fill="none" stroke="#000000" d="M209.6955,-317.3011C209.6955,-317.3011 163.6007,-317.3011 163.6007,-317.3011 160.367,-317.3011 157.1333,-314.0674 157.1333,-310.8337 157.1333,-310.8337 157.1333,-304.3663 157.1333,-304.3663 157.1333,-301.1326 160.367,-297.8989 163.6007,-297.8989 163.6007,-297.8989 209.6955,-297.8989 209.6955,-297.8989 212.9292,-297.8989 216.1629,-301.1326 216.1629,-304.3663 216.1629,-304.3663 216.1629,-310.8337 216.1629,-310.8337 216.1629,-314.0674 212.9292,-317.3011 209.6955,-317.3011"></path>
<text text-anchor="middle" x="186.6481" y="-304.3" font-family="Roboto Condensed, sans-serif" font-size="11.00" fill="#000000">depd@2.0.0</text>
</g>
<!-- egg&#45;logger@2.4.1&#45;&gt;depd@2.0.0 -->
<g id="edge1" class="edge">

<path fill="none" stroke="#000000" d="M49.0794,-204.3095C61.0417,-222.3462 89.0562,-261.2173 121.7764,-283.6 129.5646,-288.9276 138.6836,-293.2458 147.5827,-296.6723"></path>
<polygon fill="#000000" stroke="#000000" points="146.4847,-299.9965 157.0794,-300.0461 148.8281,-293.4004 146.4847,-299.9965"></polygon>
</g>
<!-- mkdirp@0.5.1 -->
<g id="node3" class="node module-mkdirp maintainer-substack license-mit">

<path fill="none" stroke="#000000" d="M380.8303,-352.3011C380.8303,-352.3011 323.9538,-352.3011 323.9538,-352.3011 320.7201,-352.3011 317.4864,-349.0674 317.4864,-345.8337 317.4864,-345.8337 317.4864,-339.3663 317.4864,-339.3663 317.4864,-336.1326 320.7201,-332.8989 323.9538,-332.8989 323.9538,-332.8989 380.8303,-332.8989 380.8303,-332.8989 384.064,-332.8989 387.2977,-336.1326 387.2977,-339.3663 387.2977,-339.3663 387.2977,-345.8337 387.2977,-345.8337 387.2977,-349.0674 384.064,-352.3011 380.8303,-352.3011"></path>
<text text-anchor="middle" x="352.3921" y="-339.3" font-family="Roboto Condensed, sans-serif" font-size="11.00" fill="#000000">mkdirp@0.5.1</text>
</g>
<!-- egg&#45;logger@2.4.1&#45;&gt;mkdirp@0.5.1 -->
<g id="edge2" class="edge">

<path fill="none" stroke="#000000" d="M53.8894,-204.2343C68.4829,-216.5671 95.4753,-237.8589 121.7764,-250.6 175.8515,-276.7958 199.8344,-257.9575 251.5198,-288.6 270.9836,-300.1395 267.9742,-313.1996 287.5198,-324.6 293.6248,-328.1609 300.4652,-331.0439 307.3529,-333.3705"></path>
<polygon fill="#000000" stroke="#000000" points="306.8134,-336.8632 317.3979,-336.3953 308.8319,-330.1605 306.8134,-336.8632"></polygon>
</g>
<!-- circular&#45;json&#45;for&#45;egg@1.0.0 -->
<g id="node4" class="node module-circular_json_for_egg maintainer-dead_horse license-mit">

<path fill="none" stroke="#000000" d="M244.9244,-204.3011C244.9244,-204.3011 128.3718,-204.3011 128.3718,-204.3011 125.1381,-204.3011 121.9044,-201.0674 121.9044,-197.8337 121.9044,-197.8337 121.9044,-191.3663 121.9044,-191.3663 121.9044,-188.1326 125.1381,-184.8989 128.3718,-184.8989 128.3718,-184.8989 244.9244,-184.8989 244.9244,-184.8989 248.1581,-184.8989 251.3918,-188.1326 251.3918,-191.3663 251.3918,-191.3663 251.3918,-197.8337 251.3918,-197.8337 251.3918,-201.0674 248.1581,-204.3011 244.9244,-204.3011"></path>
<text text-anchor="middle" x="186.6481" y="-191.3" font-family="Roboto Condensed, sans-serif" font-size="11.00" fill="#000000">circular-json-for-egg@1.0.0</text>
</g>
<!-- egg&#45;logger@2.4.1&#45;&gt;circular&#45;json&#45;for&#45;egg@1.0.0 -->
<g id="edge3" class="edge">

<path fill="none" stroke="#000000" d="M86.0209,-194.6C94.1054,-194.6 102.7708,-194.6 111.5005,-194.6"></path>
<polygon fill="#000000" stroke="#000000" points="111.7472,-198.1001 121.7472,-194.6 111.7471,-191.1001 111.7472,-198.1001"></polygon>
</g>
<!-- iconv&#45;lite@0.4.24 -->
<g id="node5" class="node module-iconv_lite maintainer-ashtuchkin license-mit">

<path fill="none" stroke="#000000" d="M222.9662,-167.3011C222.9662,-167.3011 150.33,-167.3011 150.33,-167.3011 147.0963,-167.3011 143.8626,-164.0674 143.8626,-160.8337 143.8626,-160.8337 143.8626,-154.3663 143.8626,-154.3663 143.8626,-151.1326 147.0963,-147.8989 150.33,-147.8989 150.33,-147.8989 222.9662,-147.8989 222.9662,-147.8989 226.1999,-147.8989 229.4336,-151.1326 229.4336,-154.3663 229.4336,-154.3663 229.4336,-160.8337 229.4336,-160.8337 229.4336,-164.0674 226.1999,-167.3011 222.9662,-167.3011"></path>
<text text-anchor="middle" x="186.6481" y="-154.3" font-family="Roboto Condensed, sans-serif" font-size="11.00" fill="#000000">iconv-lite@0.4.24</text>
</g>
<!-- egg&#45;logger@2.4.1&#45;&gt;iconv&#45;lite@0.4.24 -->
<g id="edge4" class="edge">

<path fill="none" stroke="#000000" d="M80.2841,-184.9753C98.3496,-180.3257 120.2236,-174.6959 139.4261,-169.7537"></path>
<polygon fill="#000000" stroke="#000000" points="140.3779,-173.1229 149.1899,-167.2407 138.6331,-166.3438 140.3779,-173.1229"></polygon>
</g>
<!-- chalk@2.4.2 -->
<g id="node6" class="node module-chalk maintainer-qix maintainer-sindresorhus license-mit">

<path fill="none" stroke="#000000" d="M211.1333,-111.3011C211.1333,-111.3011 162.1629,-111.3011 162.1629,-111.3011 158.9292,-111.3011 155.6955,-108.0674 155.6955,-104.8337 155.6955,-104.8337 155.6955,-98.3663 155.6955,-98.3663 155.6955,-95.1326 158.9292,-91.8989 162.1629,-91.8989 162.1629,-91.8989 211.1333,-91.8989 211.1333,-91.8989 214.367,-91.8989 217.6007,-95.1326 217.6007,-98.3663 217.6007,-98.3663 217.6007,-104.8337 217.6007,-104.8337 217.6007,-108.0674 214.367,-111.3011 211.1333,-111.3011"></path>
<text text-anchor="middle" x="186.6481" y="-98.3" font-family="Roboto Condensed, sans-serif" font-size="11.00" fill="#000000">chalk@2.4.2</text>
</g>
<!-- egg&#45;logger@2.4.1&#45;&gt;chalk@2.4.2 -->
<g id="edge5" class="edge">

<path fill="none" stroke="#000000" d="M55.7373,-184.8822C71.1312,-173.3809 97.8459,-153.8654 121.7764,-138.6 133.9379,-130.8421 147.7814,-122.8389 159.5479,-116.2689"></path>
<polygon fill="#000000" stroke="#000000" points="161.4082,-119.2398 168.4673,-111.3392 158.022,-113.1133 161.4082,-119.2398"></polygon>
</g>
<!-- utility@1.16.1 -->
<g id="node7" class="node module-utility maintainer-dead_horse maintainer-fengmk2 maintainer-xadillax license-mit">

<path fill="none" stroke="#000000" d="M215.0952,-241.3011C215.0952,-241.3011 158.201,-241.3011 158.201,-241.3011 154.9673,-241.3011 151.7336,-238.0674 151.7336,-234.8337 151.7336,-234.8337 151.7336,-228.3663 151.7336,-228.3663 151.7336,-225.1326 154.9673,-221.8989 158.201,-221.8989 158.201,-221.8989 215.0952,-221.8989 215.0952,-221.8989 218.3289,-221.8989 221.5626,-225.1326 221.5626,-228.3663 221.5626,-228.3663 221.5626,-234.8337 221.5626,-234.8337 221.5626,-238.0674 218.3289,-241.3011 215.0952,-241.3011"></path>
<text text-anchor="middle" x="186.6481" y="-228.3" font-family="Roboto Condensed, sans-serif" font-size="11.00" fill="#000000">utility@1.16.1</text>
</g>
<!-- egg&#45;logger@2.4.1&#45;&gt;utility@1.16.1 -->
<g id="edge6" class="edge">

<path fill="none" stroke="#000000" d="M80.2841,-204.2247C99.073,-209.0605 121.9816,-214.9565 141.7196,-220.0366"></path>
<polygon fill="#000000" stroke="#000000" points="140.8604,-223.4295 151.4172,-222.5325 142.6052,-216.6504 140.8604,-223.4295"></polygon>
</g>
<!-- debug@2.6.9 -->
<g id="node8" class="node module-debug maintainer-thebigredgeek maintainer-kolban maintainer-tootallnate maintainer-tjholowaychuk license-mit">

<path fill="none" stroke="#000000" d="M212.6935,-56.3011C212.6935,-56.3011 160.6027,-56.3011 160.6027,-56.3011 157.369,-56.3011 154.1353,-53.0674 154.1353,-49.8337 154.1353,-49.8337 154.1353,-43.3663 154.1353,-43.3663 154.1353,-40.1326 157.369,-36.8989 160.6027,-36.8989 160.6027,-36.8989 212.6935,-36.8989 212.6935,-36.8989 215.9272,-36.8989 219.1609,-40.1326 219.1609,-43.3663 219.1609,-43.3663 219.1609,-49.8337 219.1609,-49.8337 219.1609,-53.0674 215.9272,-56.3011 212.6935,-56.3011"></path>
<text text-anchor="middle" x="186.6481" y="-43.3" font-family="Roboto Condensed, sans-serif" font-size="11.00" fill="#000000">debug@2.6.9</text>
</g>
<!-- egg&#45;logger@2.4.1&#45;&gt;debug@2.6.9 -->
<g id="edge8" class="edge">

<path fill="none" stroke="#000000" d="M47.8068,-184.8041C58.7111,-163.859 86.7443,-114.0703 121.7764,-82.6 131.3583,-73.9923 143.353,-66.6162 154.4134,-60.823"></path>
<polygon fill="#000000" stroke="#000000" points="156.0235,-63.9312 163.4109,-56.3366 152.8999,-57.6667 156.0235,-63.9312"></polygon>
</g>
<!-- minimist@0.0.8 -->
<g id="node9" class="node module-minimist maintainer-substack license-mit">

<path fill="none" stroke="#000000" d="M538.2115,-354.3011C538.2115,-354.3011 473.6471,-354.3011 473.6471,-354.3011 470.4134,-354.3011 467.1797,-351.0674 467.1797,-347.8337 467.1797,-347.8337 467.1797,-341.3663 467.1797,-341.3663 467.1797,-338.1326 470.4134,-334.8989 473.6471,-334.8989 473.6471,-334.8989 538.2115,-334.8989 538.2115,-334.8989 541.4452,-334.8989 544.6789,-338.1326 544.6789,-341.3663 544.6789,-341.3663 544.6789,-347.8337 544.6789,-347.8337 544.6789,-351.0674 541.4452,-354.3011 538.2115,-354.3011"></path>
<text text-anchor="middle" x="505.9293" y="-341.3" font-family="Roboto Condensed, sans-serif" font-size="11.00" fill="#000000">minimist@0.0.8</text>
</g>
<!-- mkdirp@0.5.1&#45;&gt;minimist@0.0.8 -->
<g id="edge9" class="edge">

<path fill="none" stroke="#000000" d="M387.6166,-343.0588C408.1925,-343.3269 434.4662,-343.6691 457.0255,-343.963"></path>
<polygon fill="#000000" stroke="#000000" points="457.0507,-347.4635 467.0955,-344.0941 457.1419,-340.4641 457.0507,-347.4635"></polygon>
</g>
<!-- safer&#45;buffer@2.1.2 -->
<g id="node10" class="node module-safer_buffer maintainer-chalker license-mit">

<path fill="none" stroke="#000000" d="M390.9526,-167.3011C390.9526,-167.3011 313.8315,-167.3011 313.8315,-167.3011 310.5978,-167.3011 307.3641,-164.0674 307.3641,-160.8337 307.3641,-160.8337 307.3641,-154.3663 307.3641,-154.3663 307.3641,-151.1326 310.5978,-147.8989 313.8315,-147.8989 313.8315,-147.8989 390.9526,-147.8989 390.9526,-147.8989 394.1863,-147.8989 397.42,-151.1326 397.42,-154.3663 397.42,-154.3663 397.42,-160.8337 397.42,-160.8337 397.42,-164.0674 394.1863,-167.3011 390.9526,-167.3011"></path>
<text text-anchor="middle" x="352.3921" y="-154.3" font-family="Roboto Condensed, sans-serif" font-size="11.00" fill="#000000">safer-buffer@2.1.2</text>
</g>
<!-- iconv&#45;lite@0.4.24&#45;&gt;safer&#45;buffer@2.1.2 -->
<g id="edge10" class="edge">

<path fill="none" stroke="#000000" d="M229.7627,-157.6C250.2978,-157.6 275.1012,-157.6 297.0127,-157.6"></path>
<polygon fill="#000000" stroke="#000000" points="297.1771,-161.1001 307.1771,-157.6 297.177,-154.1001 297.1771,-161.1001"></polygon>
</g>
<!-- ansi&#45;styles@3.2.1 -->
<g id="node13" class="node module-ansi_styles maintainer-qix maintainer-sindresorhus license-mit">

<path fill="none" stroke="#000000" d="M387.9878,-130.3011C387.9878,-130.3011 316.7963,-130.3011 316.7963,-130.3011 313.5626,-130.3011 310.3289,-127.0674 310.3289,-123.8337 310.3289,-123.8337 310.3289,-117.3663 310.3289,-117.3663 310.3289,-114.1326 313.5626,-110.8989 316.7963,-110.8989 316.7963,-110.8989 387.9878,-110.8989 387.9878,-110.8989 391.2215,-110.8989 394.4552,-114.1326 394.4552,-117.3663 394.4552,-117.3663 394.4552,-123.8337 394.4552,-123.8337 394.4552,-127.0674 391.2215,-130.3011 387.9878,-130.3011"></path>
<text text-anchor="middle" x="352.3921" y="-117.3" font-family="Roboto Condensed, sans-serif" font-size="11.00" fill="#000000">ansi-styles@3.2.1</text>
</g>
<!-- chalk@2.4.2&#45;&gt;ansi&#45;styles@3.2.1 -->
<g id="edge13" class="edge">

<path fill="none" stroke="#000000" d="M217.8233,-105.1738C240.9391,-107.8236 272.9899,-111.4978 300.0135,-114.5956"></path>
<polygon fill="#000000" stroke="#000000" points="299.7618,-118.0896 310.0954,-115.7513 300.5591,-111.1351 299.7618,-118.0896"></polygon>
</g>
<!-- supports&#45;color@5.5.0 -->
<g id="node14" class="node module-supports_color maintainer-qix maintainer-sindresorhus license-mit">

<path fill="none" stroke="#000000" d="M396.5933,-93.3011C396.5933,-93.3011 308.1908,-93.3011 308.1908,-93.3011 304.9571,-93.3011 301.7234,-90.0674 301.7234,-86.8337 301.7234,-86.8337 301.7234,-80.3663 301.7234,-80.3663 301.7234,-77.1326 304.9571,-73.8989 308.1908,-73.8989 308.1908,-73.8989 396.5933,-73.8989 396.5933,-73.8989 399.827,-73.8989 403.0607,-77.1326 403.0607,-80.3663 403.0607,-80.3663 403.0607,-86.8337 403.0607,-86.8337 403.0607,-90.0674 399.827,-93.3011 396.5933,-93.3011"></path>
<text text-anchor="middle" x="352.3921" y="-80.3" font-family="Roboto Condensed, sans-serif" font-size="11.00" fill="#000000">supports-color@5.5.0</text>
</g>
<!-- chalk@2.4.2&#45;&gt;supports&#45;color@5.5.0 -->
<g id="edge14" class="edge">

<path fill="none" stroke="#000000" d="M217.8233,-98.2143C238.5102,-95.9677 266.3529,-92.944 291.3445,-90.2298"></path>
<polygon fill="#000000" stroke="#000000" points="291.9222,-93.6878 301.4858,-89.1285 291.1664,-86.7287 291.9222,-93.6878"></polygon>
</g>
<!-- escape&#45;string&#45;regexp@1.0.5 -->
<g id="node15" class="node module-escape_string_regexp maintainer-sindresorhus maintainer-jbnicolai license-mit">

<path fill="none" stroke="#000000" d="M410.6694,-56.3011C410.6694,-56.3011 294.1147,-56.3011 294.1147,-56.3011 290.881,-56.3011 287.6473,-53.0674 287.6473,-49.8337 287.6473,-49.8337 287.6473,-43.3663 287.6473,-43.3663 287.6473,-40.1326 290.881,-36.8989 294.1147,-36.8989 294.1147,-36.8989 410.6694,-36.8989 410.6694,-36.8989 413.9031,-36.8989 417.1368,-40.1326 417.1368,-43.3663 417.1368,-43.3663 417.1368,-49.8337 417.1368,-49.8337 417.1368,-53.0674 413.9031,-56.3011 410.6694,-56.3011"></path>
<text text-anchor="middle" x="352.3921" y="-43.3" font-family="Roboto Condensed, sans-serif" font-size="11.00" fill="#000000">escape-string-regexp@1.0.5</text>
</g>
<!-- chalk@2.4.2&#45;&gt;escape&#45;string&#45;regexp@1.0.5 -->
<g id="edge15" class="edge">

<path fill="none" stroke="#000000" d="M211.3265,-91.9129C231.6304,-84.097 261.2381,-73.051 287.5198,-64.6 293.4345,-62.6981 299.6898,-60.81 305.8894,-59.0119"></path>
<polygon fill="#000000" stroke="#000000" points="306.8671,-62.3727 315.5287,-56.2714 304.9527,-55.6395 306.8671,-62.3727"></polygon>
</g>
<!-- utility@1.16.1&#45;&gt;mkdirp@0.5.1 -->
<g id="edge7" class="edge">

<path fill="none" stroke="#000000" d="M221.8636,-239.4212C232.2865,-243.0324 243.1394,-248.2182 251.5198,-255.6 277.4759,-278.4632 260.63,-302.8426 287.5198,-324.6 293.3293,-329.3007 300.2835,-332.7761 307.4482,-335.3451"></path>
<polygon fill="#000000" stroke="#000000" points="306.6758,-338.7681 317.261,-338.3164 308.7045,-332.0685 306.6758,-338.7681"></polygon>
</g>
<!-- escape&#45;html@1.0.3 -->
<g id="node11" class="node module-escape_html maintainer-tjholowaychuk maintainer-dougwilson license-mit">

<path fill="none" stroke="#000000" d="M391.6971,-315.3011C391.6971,-315.3011 313.087,-315.3011 313.087,-315.3011 309.8533,-315.3011 306.6196,-312.0674 306.6196,-308.8337 306.6196,-308.8337 306.6196,-302.3663 306.6196,-302.3663 306.6196,-299.1326 309.8533,-295.8989 313.087,-295.8989 313.087,-295.8989 391.6971,-295.8989 391.6971,-295.8989 394.9308,-295.8989 398.1645,-299.1326 398.1645,-302.3663 398.1645,-302.3663 398.1645,-308.8337 398.1645,-308.8337 398.1645,-312.0674 394.9308,-315.3011 391.6971,-315.3011"></path>
<text text-anchor="middle" x="352.3921" y="-302.3" font-family="Roboto Condensed, sans-serif" font-size="11.00" fill="#000000">escape-html@1.0.3</text>
</g>
<!-- utility@1.16.1&#45;&gt;escape&#45;html@1.0.3 -->
<g id="edge11" class="edge">

<path fill="none" stroke="#000000" d="M220.0758,-241.2909C230.5235,-245.013 241.8409,-249.7917 251.5198,-255.6 269.8756,-266.6153 268.7193,-277.3622 287.5198,-287.6 290.7372,-289.352 294.1392,-290.9449 297.6324,-292.3912"></path>
<polygon fill="#000000" stroke="#000000" points="296.435,-295.6801 307.0278,-295.8864 298.8757,-289.1193 296.435,-295.6801"></polygon>
</g>
<!-- mz@2.7.0 -->
<g id="node12" class="node module-mz maintainer-evancarroll maintainer-coderhaoxin maintainer-rstacruz maintainer-linusu maintainer-dead_horse maintainer-jongleberry maintainer-swatinem license-mit">

<path fill="none" stroke="#000000" d="M371.4962,-278.3011C371.4962,-278.3011 333.2879,-278.3011 333.2879,-278.3011 330.0543,-278.3011 326.8206,-275.0674 326.8206,-271.8337 326.8206,-271.8337 326.8206,-265.3663 326.8206,-265.3663 326.8206,-262.1326 330.0543,-258.8989 333.2879,-258.8989 333.2879,-258.8989 371.4962,-258.8989 371.4962,-258.8989 374.7298,-258.8989 377.9635,-262.1326 377.9635,-265.3663 377.9635,-265.3663 377.9635,-271.8337 377.9635,-271.8337 377.9635,-275.0674 374.7298,-278.3011 371.4962,-278.3011"></path>
<text text-anchor="middle" x="352.3921" y="-265.3" font-family="Roboto Condensed, sans-serif" font-size="11.00" fill="#000000">mz@2.7.0</text>
</g>
<!-- utility@1.16.1&#45;&gt;mz@2.7.0 -->
<g id="edge12" class="edge">

<path fill="none" stroke="#000000" d="M221.7981,-239.4467C249.8111,-245.7003 288.8598,-254.4173 316.9493,-260.6879"></path>
<polygon fill="#000000" stroke="#000000" points="316.2391,-264.1155 326.7615,-262.8783 317.7643,-257.2836 316.2391,-264.1155"></polygon>
</g>
<!-- unescape@1.0.1 -->
<g id="node16" class="node module-unescape maintainer-jonschlinkert license-mit">

<path fill="none" stroke="#000000" d="M385.3653,-241.3011C385.3653,-241.3011 319.4188,-241.3011 319.4188,-241.3011 316.1851,-241.3011 312.9514,-238.0674 312.9514,-234.8337 312.9514,-234.8337 312.9514,-228.3663 312.9514,-228.3663 312.9514,-225.1326 316.1851,-221.8989 319.4188,-221.8989 319.4188,-221.8989 385.3653,-221.8989 385.3653,-221.8989 388.599,-221.8989 391.8327,-225.1326 391.8327,-228.3663 391.8327,-228.3663 391.8327,-234.8337 391.8327,-234.8337 391.8327,-238.0674 388.599,-241.3011 385.3653,-241.3011"></path>
<text text-anchor="middle" x="352.3921" y="-228.3" font-family="Roboto Condensed, sans-serif" font-size="11.00" fill="#000000">unescape@1.0.1</text>
</g>
<!-- utility@1.16.1&#45;&gt;unescape@1.0.1 -->
<g id="edge16" class="edge">

<path fill="none" stroke="#000000" d="M221.7981,-231.6C245.3709,-231.6 276.7583,-231.6 302.854,-231.6"></path>
<polygon fill="#000000" stroke="#000000" points="302.9357,-235.1001 312.9357,-231.6 302.9357,-228.1001 302.9357,-235.1001"></polygon>
</g>
<!-- copy&#45;to@2.0.1 -->
<g id="node17" class="node module-copy_to maintainer-dead_horse license-mit">

<path fill="none" stroke="#000000" d="M381.6568,-204.3011C381.6568,-204.3011 323.1273,-204.3011 323.1273,-204.3011 319.8936,-204.3011 316.6599,-201.0674 316.6599,-197.8337 316.6599,-197.8337 316.6599,-191.3663 316.6599,-191.3663 316.6599,-188.1326 319.8936,-184.8989 323.1273,-184.8989 323.1273,-184.8989 381.6568,-184.8989 381.6568,-184.8989 384.8905,-184.8989 388.1242,-188.1326 388.1242,-191.3663 388.1242,-191.3663 388.1242,-197.8337 388.1242,-197.8337 388.1242,-201.0674 384.8905,-204.3011 381.6568,-204.3011"></path>
<text text-anchor="middle" x="352.3921" y="-191.3" font-family="Roboto Condensed, sans-serif" font-size="11.00" fill="#000000">copy-to@2.0.1</text>
</g>
<!-- utility@1.16.1&#45;&gt;copy&#45;to@2.0.1 -->
<g id="edge17" class="edge">

<path fill="none" stroke="#000000" d="M221.7981,-223.7533C246.4864,-218.242 279.7462,-210.8172 306.5215,-204.84"></path>
<polygon fill="#000000" stroke="#000000" points="307.4373,-208.2218 316.4345,-202.627 305.9121,-201.3899 307.4373,-208.2218"></polygon>
</g>
<!-- ms@2.0.0 -->
<g id="node24" class="node module-ms maintainer-leo maintainer-rauchg license-mit">

<path fill="none" stroke="#000000" d="M371.3894,-19.3011C371.3894,-19.3011 333.3947,-19.3011 333.3947,-19.3011 330.161,-19.3011 326.9273,-16.0674 326.9273,-12.8337 326.9273,-12.8337 326.9273,-6.3663 326.9273,-6.3663 326.9273,-3.1326 330.161,.1011 333.3947,.1011 333.3947,.1011 371.3894,.1011 371.3894,.1011 374.6231,.1011 377.8568,-3.1326 377.8568,-6.3663 377.8568,-6.3663 377.8568,-12.8337 377.8568,-12.8337 377.8568,-16.0674 374.6231,-19.3011 371.3894,-19.3011"></path>
<text text-anchor="middle" x="352.3921" y="-6.3" font-family="Roboto Condensed, sans-serif" font-size="11.00" fill="#000000">ms@2.0.0</text>
</g>
<!-- debug@2.6.9&#45;&gt;ms@2.0.0 -->
<g id="edge24" class="edge">

<path fill="none" stroke="#000000" d="M219.3938,-39.29C247.4574,-33.0252 287.8055,-24.018 316.6907,-17.5698"></path>
<polygon fill="#000000" stroke="#000000" points="317.7728,-20.9145 326.77,-15.3198 316.2476,-14.0826 317.7728,-20.9145"></polygon>
</g>
<!-- thenify&#45;all@1.6.0 -->
<g id="node18" class="node module-thenify_all maintainer-jongleberry maintainer-dead_horse license-mit">

<path fill="none" stroke="#000000" d="M541.409,-278.3011C541.409,-278.3011 470.4496,-278.3011 470.4496,-278.3011 467.2159,-278.3011 463.9822,-275.0674 463.9822,-271.8337 463.9822,-271.8337 463.9822,-265.3663 463.9822,-265.3663 463.9822,-262.1326 467.2159,-258.8989 470.4496,-258.8989 470.4496,-258.8989 541.409,-258.8989 541.409,-258.8989 544.6427,-258.8989 547.8764,-262.1326 547.8764,-265.3663 547.8764,-265.3663 547.8764,-271.8337 547.8764,-271.8337 547.8764,-275.0674 544.6427,-278.3011 541.409,-278.3011"></path>
<text text-anchor="middle" x="505.9293" y="-265.3" font-family="Roboto Condensed, sans-serif" font-size="11.00" fill="#000000">thenify-all@1.6.0</text>
</g>
<!-- mz@2.7.0&#45;&gt;thenify&#45;all@1.6.0 -->
<g id="edge18" class="edge">

<path fill="none" stroke="#000000" d="M378.0907,-268.6C398.649,-268.6 428.1499,-268.6 453.6329,-268.6"></path>
<polygon fill="#000000" stroke="#000000" points="453.9032,-272.1001 463.9032,-268.6 453.9032,-265.1001 453.9032,-272.1001"></polygon>
</g>
<!-- object&#45;assign@4.1.1 -->
<g id="node19" class="node module-object_assign maintainer-gaearon maintainer-sindresorhus maintainer-spicyj license-mit">

<path fill="none" stroke="#000000" d="M547.6291,-241.3011C547.6291,-241.3011 464.2295,-241.3011 464.2295,-241.3011 460.9958,-241.3011 457.7622,-238.0674 457.7622,-234.8337 457.7622,-234.8337 457.7622,-228.3663 457.7622,-228.3663 457.7622,-225.1326 460.9958,-221.8989 464.2295,-221.8989 464.2295,-221.8989 547.6291,-221.8989 547.6291,-221.8989 550.8628,-221.8989 554.0964,-225.1326 554.0964,-228.3663 554.0964,-228.3663 554.0964,-234.8337 554.0964,-234.8337 554.0964,-238.0674 550.8628,-241.3011 547.6291,-241.3011"></path>
<text text-anchor="middle" x="505.9293" y="-228.3" font-family="Roboto Condensed, sans-serif" font-size="11.00" fill="#000000">object-assign@4.1.1</text>
</g>
<!-- mz@2.7.0&#45;&gt;object&#45;assign@4.1.1 -->
<g id="edge19" class="edge">

<path fill="none" stroke="#000000" d="M378.0907,-262.407C399.3616,-257.2811 430.2059,-249.8481 456.2679,-243.5676"></path>
<polygon fill="#000000" stroke="#000000" points="457.0906,-246.9696 465.9923,-241.2242 455.4506,-240.1644 457.0906,-246.9696"></polygon>
</g>
<!-- any&#45;promise@1.3.0 -->
<g id="node22" class="node module-any_promise maintainer-kevinbeaty license-mit">

<path fill="none" stroke="#000000" d="M814.0658,-297.3011C814.0658,-297.3011 733.778,-297.3011 733.778,-297.3011 730.5443,-297.3011 727.3106,-294.0674 727.3106,-290.8337 727.3106,-290.8337 727.3106,-284.3663 727.3106,-284.3663 727.3106,-281.1326 730.5443,-277.8989 733.778,-277.8989 733.778,-277.8989 814.0658,-277.8989 814.0658,-277.8989 817.2995,-277.8989 820.5332,-281.1326 820.5332,-284.3663 820.5332,-284.3663 820.5332,-290.8337 820.5332,-290.8337 820.5332,-294.0674 817.2995,-297.3011 814.0658,-297.3011"></path>
<text text-anchor="middle" x="773.9219" y="-284.3" font-family="Roboto Condensed, sans-serif" font-size="11.00" fill="#000000">any-promise@1.3.0</text>
</g>
<!-- mz@2.7.0&#45;&gt;any&#45;promise@1.3.0 -->
<g id="edge22" class="edge">

<path fill="none" stroke="#000000" d="M378.3287,-274.8639C398.592,-279.4216 427.5365,-285.1981 453.2643,-287.6 545.2805,-296.1904 652.798,-293.6396 717.0185,-290.7846"></path>
<polygon fill="#000000" stroke="#000000" points="717.504,-294.266 727.3313,-290.3069 717.18,-287.2735 717.504,-294.266"></polygon>
</g>
<!-- color&#45;convert@1.9.3 -->
<g id="node20" class="node module-color_convert maintainer-moox maintainer-qix license-mit">

<path fill="none" stroke="#000000" d="M548.3408,-130.3011C548.3408,-130.3011 463.5178,-130.3011 463.5178,-130.3011 460.2841,-130.3011 457.0505,-127.0674 457.0505,-123.8337 457.0505,-123.8337 457.0505,-117.3663 457.0505,-117.3663 457.0505,-114.1326 460.2841,-110.8989 463.5178,-110.8989 463.5178,-110.8989 548.3408,-110.8989 548.3408,-110.8989 551.5745,-110.8989 554.8081,-114.1326 554.8081,-117.3663 554.8081,-117.3663 554.8081,-123.8337 554.8081,-123.8337 554.8081,-127.0674 551.5745,-130.3011 548.3408,-130.3011"></path>
<text text-anchor="middle" x="505.9293" y="-117.3" font-family="Roboto Condensed, sans-serif" font-size="11.00" fill="#000000">color-convert@1.9.3</text>
</g>
<!-- ansi&#45;styles@3.2.1&#45;&gt;color&#45;convert@1.9.3 -->
<g id="edge20" class="edge">

<path fill="none" stroke="#000000" d="M394.7532,-120.6C410.9287,-120.6 429.6738,-120.6 447.1102,-120.6"></path>
<polygon fill="#000000" stroke="#000000" points="447.1959,-124.1001 457.1959,-120.6 447.1959,-117.1001 447.1959,-124.1001"></polygon>
</g>
<!-- has&#45;flag@3.0.0 -->
<g id="node21" class="node module-has_flag maintainer-sindresorhus maintainer-jbnicolai license-mit">

<path fill="none" stroke="#000000" d="M536.0176,-93.3011C536.0176,-93.3011 475.841,-93.3011 475.841,-93.3011 472.6073,-93.3011 469.3737,-90.0674 469.3737,-86.8337 469.3737,-86.8337 469.3737,-80.3663 469.3737,-80.3663 469.3737,-77.1326 472.6073,-73.8989 475.841,-73.8989 475.841,-73.8989 536.0176,-73.8989 536.0176,-73.8989 539.2513,-73.8989 542.4849,-77.1326 542.4849,-80.3663 542.4849,-80.3663 542.4849,-86.8337 542.4849,-86.8337 542.4849,-90.0674 539.2513,-93.3011 536.0176,-93.3011"></path>
<text text-anchor="middle" x="505.9293" y="-80.3" font-family="Roboto Condensed, sans-serif" font-size="11.00" fill="#000000">has-flag@3.0.0</text>
</g>
<!-- supports&#45;color@5.5.0&#45;&gt;has&#45;flag@3.0.0 -->
<g id="edge21" class="edge">

<path fill="none" stroke="#000000" d="M403.0914,-83.6C421.0536,-83.6 441.1765,-83.6 458.8268,-83.6"></path>
<polygon fill="#000000" stroke="#000000" points="458.8984,-87.1001 468.8983,-83.6 458.8983,-80.1001 458.8984,-87.1001"></polygon>
</g>
<!-- extend&#45;shallow@2.0.1 -->
<g id="node23" class="node module-extend_shallow maintainer-jonschlinkert license-mit">

<path fill="none" stroke="#000000" d="M552.2925,-204.3011C552.2925,-204.3011 459.5661,-204.3011 459.5661,-204.3011 456.3325,-204.3011 453.0988,-201.0674 453.0988,-197.8337 453.0988,-197.8337 453.0988,-191.3663 453.0988,-191.3663 453.0988,-188.1326 456.3325,-184.8989 459.5661,-184.8989 459.5661,-184.8989 552.2925,-184.8989 552.2925,-184.8989 555.5261,-184.8989 558.7598,-188.1326 558.7598,-191.3663 558.7598,-191.3663 558.7598,-197.8337 558.7598,-197.8337 558.7598,-201.0674 555.5261,-204.3011 552.2925,-204.3011"></path>
<text text-anchor="middle" x="505.9293" y="-191.3" font-family="Roboto Condensed, sans-serif" font-size="11.00" fill="#000000">extend-shallow@2.0.1</text>
</g>
<!-- unescape@1.0.1&#45;&gt;extend&#45;shallow@2.0.1 -->
<g id="edge23" class="edge">

<path fill="none" stroke="#000000" d="M391.9317,-222.0716C411.479,-217.361 435.2754,-211.6264 456.0603,-206.6176"></path>
<polygon fill="#000000" stroke="#000000" points="457.0883,-209.9702 465.99,-204.2247 455.4483,-203.165 457.0883,-209.9702"></polygon>
</g>
<!-- thenify@3.3.0 -->
<g id="node26" class="node module-thenify maintainer-jongleberry maintainer-dead_horse license-mit">

<path fill="none" stroke="#000000" d="M671.302,-278.3011C671.302,-278.3011 614.6586,-278.3011 614.6586,-278.3011 611.4249,-278.3011 608.1912,-275.0674 608.1912,-271.8337 608.1912,-271.8337 608.1912,-265.3663 608.1912,-265.3663 608.1912,-262.1326 611.4249,-258.8989 614.6586,-258.8989 614.6586,-258.8989 671.302,-258.8989 671.302,-258.8989 674.5357,-258.8989 677.7694,-262.1326 677.7694,-265.3663 677.7694,-265.3663 677.7694,-271.8337 677.7694,-271.8337 677.7694,-275.0674 674.5357,-278.3011 671.302,-278.3011"></path>
<text text-anchor="middle" x="642.9803" y="-265.3" font-family="Roboto Condensed, sans-serif" font-size="11.00" fill="#000000">thenify@3.3.0</text>
</g>
<!-- thenify&#45;all@1.6.0&#45;&gt;thenify@3.3.0 -->
<g id="edge26" class="edge">

<path fill="none" stroke="#000000" d="M548.1674,-268.6C563.9097,-268.6 581.8337,-268.6 597.8276,-268.6"></path>
<polygon fill="#000000" stroke="#000000" points="598.017,-272.1001 608.017,-268.6 598.0169,-265.1001 598.017,-272.1001"></polygon>
</g>
<!-- color&#45;name@1.1.3 -->
<g id="node25" class="node module-color_name maintainer-dfcreative license-mit">

<path fill="none" stroke="#000000" d="M680.7294,-130.3011C680.7294,-130.3011 605.2312,-130.3011 605.2312,-130.3011 601.9975,-130.3011 598.7638,-127.0674 598.7638,-123.8337 598.7638,-123.8337 598.7638,-117.3663 598.7638,-117.3663 598.7638,-114.1326 601.9975,-110.8989 605.2312,-110.8989 605.2312,-110.8989 680.7294,-110.8989 680.7294,-110.8989 683.9631,-110.8989 687.1968,-114.1326 687.1968,-117.3663 687.1968,-117.3663 687.1968,-123.8337 687.1968,-123.8337 687.1968,-127.0674 683.9631,-130.3011 680.7294,-130.3011"></path>
<text text-anchor="middle" x="642.9803" y="-117.3" font-family="Roboto Condensed, sans-serif" font-size="11.00" fill="#000000">color-name@1.1.3</text>
</g>
<!-- color&#45;convert@1.9.3&#45;&gt;color&#45;name@1.1.3 -->
<g id="edge25" class="edge">

<path fill="none" stroke="#000000" d="M554.6342,-120.6C565.5907,-120.6 577.2869,-120.6 588.4637,-120.6"></path>
<polygon fill="#000000" stroke="#000000" points="588.5459,-124.1001 598.5459,-120.6 588.5459,-117.1001 588.5459,-124.1001"></polygon>
</g>
<!-- is&#45;extendable@0.1.1 -->
<g id="node27" class="node module-is_extendable maintainer-jonschlinkert license-mit">

<path fill="none" stroke="#000000" d="M684.7852,-204.3011C684.7852,-204.3011 601.1754,-204.3011 601.1754,-204.3011 597.9417,-204.3011 594.708,-201.0674 594.708,-197.8337 594.708,-197.8337 594.708,-191.3663 594.708,-191.3663 594.708,-188.1326 597.9417,-184.8989 601.1754,-184.8989 601.1754,-184.8989 684.7852,-184.8989 684.7852,-184.8989 688.0189,-184.8989 691.2526,-188.1326 691.2526,-191.3663 691.2526,-191.3663 691.2526,-197.8337 691.2526,-197.8337 691.2526,-201.0674 688.0189,-204.3011 684.7852,-204.3011"></path>
<text text-anchor="middle" x="642.9803" y="-191.3" font-family="Roboto Condensed, sans-serif" font-size="11.00" fill="#000000">is-extendable@0.1.1</text>
</g>
<!-- extend&#45;shallow@2.0.1&#45;&gt;is&#45;extendable@0.1.1 -->
<g id="edge28" class="edge">

<path fill="none" stroke="#000000" d="M558.9168,-194.6C567.2708,-194.6 575.9499,-194.6 584.4215,-194.6"></path>
<polygon fill="#000000" stroke="#000000" points="584.6161,-198.1001 594.6161,-194.6 584.616,-191.1001 584.6161,-198.1001"></polygon>
</g>
<!-- thenify@3.3.0&#45;&gt;any&#45;promise@1.3.0 -->
<g id="edge27" class="edge">

<path fill="none" stroke="#000000" d="M677.7265,-273.6418C689.8016,-275.3939 703.6802,-277.4077 717.0693,-279.3505"></path>
<polygon fill="#000000" stroke="#000000" points="716.7757,-282.8445 727.1747,-280.8168 717.7809,-275.917 716.7757,-282.8445"></polygon>
</g>
</g>
</svg>