<?xml version="1.0" encoding="UTF-8" standalone="no"?>
<!DOCTYPE svg PUBLIC "-//W3C//DTD SVG 1.1//EN"
 "http://www.w3.org/Graphics/SVG/1.1/DTD/svg11.dtd">
<!-- Generated by graphviz version 2.40.1 (20161225.0304)
 -->
<!-- Title: G Pages: 1 -->
<svg width="1442pt" height="945pt"
 viewBox="0.00 0.00 1442.02 945.31" xmlns="http://www.w3.org/2000/svg" xmlns:xlink="http://www.w3.org/1999/xlink">
<g id="graph0" class="graph" transform="scale(1 1) rotate(0) translate(4 941.3139)">
<title>G</title>
<polygon fill="#ffffff" stroke="transparent" points="-4,4 -4,-941.3139 1438.0206,-941.3139 1438.0206,4 -4,4"/>
<!-- index.js -->
<g id="node1" class="node">
<title>index.js</title>
<path fill="#e5e5e5" stroke="#000000" d="M51.7101,-482.6147C51.7101,-482.6147 8.2303,-482.6147 8.2303,-482.6147 4.13,-482.6147 .0298,-478.5145 .0298,-474.4142 .0298,-474.4142 .0298,-466.2137 .0298,-466.2137 .0298,-462.1134 4.13,-458.0131 8.2303,-458.0131 8.2303,-458.0131 51.7101,-458.0131 51.7101,-458.0131 55.8104,-458.0131 59.9106,-462.1134 59.9106,-466.2137 59.9106,-466.2137 59.9106,-474.4142 59.9106,-474.4142 59.9106,-478.5145 55.8104,-482.6147 51.7101,-482.6147"/>
<text text-anchor="middle" x="29.9702" y="-466.1139" font-family="Times,serif" font-size="14.00" fill="#000000">index.js</text>
</g>
<!-- lib/egg/console_logger.js -->
<g id="node2" class="node">
<title>lib/egg/console_logger.js</title>
<path fill="#e5e5e5" stroke="#000000" d="M627.3603,-300.6147C627.3603,-300.6147 486.4765,-300.6147 486.4765,-300.6147 482.3762,-300.6147 478.2759,-296.5145 478.2759,-292.4142 478.2759,-292.4142 478.2759,-284.2137 478.2759,-284.2137 478.2759,-280.1134 482.3762,-276.0131 486.4765,-276.0131 486.4765,-276.0131 627.3603,-276.0131 627.3603,-276.0131 631.4606,-276.0131 635.5609,-280.1134 635.5609,-284.2137 635.5609,-284.2137 635.5609,-292.4142 635.5609,-292.4142 635.5609,-296.5145 631.4606,-300.6147 627.3603,-300.6147"/>
<text text-anchor="middle" x="556.9184" y="-284.1139" font-family="Times,serif" font-size="14.00" fill="#000000">lib/egg/console_logger.js</text>
</g>
<!-- index.js&#45;&gt;lib/egg/console_logger.js -->
<g id="edge1" class="edge">
<title>index.js&#45;&gt;lib/egg/console_logger.js</title>
<path fill="none" stroke="#000000" d="M31.7749,-457.6654C36.5224,-429.5489 52.1621,-361.9336 95.9404,-331.3139 211.7197,-250.335 385.8401,-260.2892 483.5966,-274.4795"/>
<polygon fill="#000000" stroke="#000000" points="483.2726,-277.9701 493.6823,-275.9981 484.3149,-271.0481 483.2726,-277.9701"/>
</g>
<!-- lib/egg/context_logger.js -->
<g id="node3" class="node">
<title>lib/egg/context_logger.js</title>
<path fill="#e5e5e5" stroke="#000000" d="M243.123,-795.6147C243.123,-795.6147 104.3462,-795.6147 104.3462,-795.6147 100.2459,-795.6147 96.1457,-791.5145 96.1457,-787.4142 96.1457,-787.4142 96.1457,-779.2137 96.1457,-779.2137 96.1457,-775.1134 100.2459,-771.0131 104.3462,-771.0131 104.3462,-771.0131 243.123,-771.0131 243.123,-771.0131 247.2233,-771.0131 251.3235,-775.1134 251.3235,-779.2137 251.3235,-779.2137 251.3235,-787.4142 251.3235,-787.4142 251.3235,-791.5145 247.2233,-795.6147 243.123,-795.6147"/>
<text text-anchor="middle" x="173.7346" y="-779.1139" font-family="Times,serif" font-size="14.00" fill="#000000">lib/egg/context_logger.js</text>
</g>
<!-- index.js&#45;&gt;lib/egg/context_logger.js -->
<g id="edge2" class="edge">
<title>index.js&#45;&gt;lib/egg/context_logger.js</title>
<path fill="none" stroke="#000000" d="M31.3379,-482.6547C36.9684,-531.4498 59.7773,-710.3003 95.9404,-752.3139 100.7657,-757.9199 106.7455,-762.522 113.2304,-766.2978"/>
<polygon fill="#000000" stroke="#000000" points="111.8288,-769.5122 122.3255,-770.9512 115.0172,-763.2805 111.8288,-769.5122"/>
</g>
<!-- lib/egg/custom_logger.js -->
<g id="node4" class="node">
<title>lib/egg/custom_logger.js</title>
<path fill="#e5e5e5" stroke="#000000" d="M434.056,-660.6147C434.056,-660.6147 295.82,-660.6147 295.82,-660.6147 291.7198,-660.6147 287.6195,-656.5145 287.6195,-652.4142 287.6195,-652.4142 287.6195,-644.2137 287.6195,-644.2137 287.6195,-640.1134 291.7198,-636.0131 295.82,-636.0131 295.82,-636.0131 434.056,-636.0131 434.056,-636.0131 438.1562,-636.0131 442.2565,-640.1134 442.2565,-644.2137 442.2565,-644.2137 442.2565,-652.4142 442.2565,-652.4142 442.2565,-656.5145 438.1562,-660.6147 434.056,-660.6147"/>
<text text-anchor="middle" x="364.938" y="-644.1139" font-family="Times,serif" font-size="14.00" fill="#000000">lib/egg/custom_logger.js</text>
</g>
<!-- index.js&#45;&gt;lib/egg/custom_logger.js -->
<g id="edge3" class="edge">
<title>index.js&#45;&gt;lib/egg/custom_logger.js</title>
<path fill="none" stroke="#000000" d="M31.8889,-482.8038C36.87,-510.5953 52.9566,-577.5887 95.9404,-609.3139 147.6961,-647.5135 220.6047,-656.0898 277.4644,-655.7596"/>
<polygon fill="#000000" stroke="#000000" points="277.5784,-659.2584 287.5246,-655.6083 277.4731,-652.2592 277.5784,-659.2584"/>
</g>
<!-- lib/egg/error_logger.js -->
<g id="node5" class="node">
<title>lib/egg/error_logger.js</title>
<path fill="#e5e5e5" stroke="#000000" d="M427.3125,-868.6147C427.3125,-868.6147 302.5635,-868.6147 302.5635,-868.6147 298.4632,-868.6147 294.363,-864.5145 294.363,-860.4142 294.363,-860.4142 294.363,-852.2137 294.363,-852.2137 294.363,-848.1134 298.4632,-844.0131 302.5635,-844.0131 302.5635,-844.0131 427.3125,-844.0131 427.3125,-844.0131 431.4128,-844.0131 435.513,-848.1134 435.513,-852.2137 435.513,-852.2137 435.513,-860.4142 435.513,-860.4142 435.513,-864.5145 431.4128,-868.6147 427.3125,-868.6147"/>
<text text-anchor="middle" x="364.938" y="-852.1139" font-family="Times,serif" font-size="14.00" fill="#000000">lib/egg/error_logger.js</text>
</g>
<!-- index.js&#45;&gt;lib/egg/error_logger.js -->
<g id="edge4" class="edge">
<title>index.js&#45;&gt;lib/egg/error_logger.js</title>
<path fill="none" stroke="#000000" d="M30.5185,-482.8368C33.2382,-538.889 47.1655,-766.0518 95.9404,-813.3139 144.9838,-860.8362 224.2833,-868.4292 284.1039,-866.0178"/>
<polygon fill="#000000" stroke="#000000" points="284.4697,-869.5039 294.2808,-865.5046 284.1172,-862.5128 284.4697,-869.5039"/>
</g>
<!-- lib/egg/logger.js -->
<g id="node6" class="node">
<title>lib/egg/logger.js</title>
<path fill="#e5e5e5" stroke="#000000" d="M602.5965,-660.6147C602.5965,-660.6147 511.2403,-660.6147 511.2403,-660.6147 507.14,-660.6147 503.0397,-656.5145 503.0397,-652.4142 503.0397,-652.4142 503.0397,-644.2137 503.0397,-644.2137 503.0397,-640.1134 507.14,-636.0131 511.2403,-636.0131 511.2403,-636.0131 602.5965,-636.0131 602.5965,-636.0131 606.6968,-636.0131 610.7971,-640.1134 610.7971,-644.2137 610.7971,-644.2137 610.7971,-652.4142 610.7971,-652.4142 610.7971,-656.5145 606.6968,-660.6147 602.5965,-660.6147"/>
<text text-anchor="middle" x="556.9184" y="-644.1139" font-family="Times,serif" font-size="14.00" fill="#000000">lib/egg/logger.js</text>
</g>
<!-- index.js&#45;&gt;lib/egg/logger.js -->
<g id="edge5" class="edge">
<title>index.js&#45;&gt;lib/egg/logger.js</title>
<path fill="none" stroke="#000000" d="M60.1939,-480.5233C148.2203,-510.2581 404.8424,-596.9436 510.5677,-632.657"/>
<polygon fill="#000000" stroke="#000000" points="509.7232,-636.0659 520.3174,-635.9503 511.9635,-629.4341 509.7232,-636.0659"/>
</g>
<!-- lib/egg/loggers.js -->
<g id="node7" class="node">
<title>lib/egg/loggers.js</title>
<path fill="#e5e5e5" stroke="#000000" d="M221.8568,-734.6147C221.8568,-734.6147 125.6124,-734.6147 125.6124,-734.6147 121.5121,-734.6147 117.4119,-730.5145 117.4119,-726.4142 117.4119,-726.4142 117.4119,-718.2137 117.4119,-718.2137 117.4119,-714.1134 121.5121,-710.0131 125.6124,-710.0131 125.6124,-710.0131 221.8568,-710.0131 221.8568,-710.0131 225.9571,-710.0131 230.0573,-714.1134 230.0573,-718.2137 230.0573,-718.2137 230.0573,-726.4142 230.0573,-726.4142 230.0573,-730.5145 225.9571,-734.6147 221.8568,-734.6147"/>
<text text-anchor="middle" x="173.7346" y="-718.1139" font-family="Times,serif" font-size="14.00" fill="#000000">lib/egg/loggers.js</text>
</g>
<!-- index.js&#45;&gt;lib/egg/loggers.js -->
<g id="edge6" class="edge">
<title>index.js&#45;&gt;lib/egg/loggers.js</title>
<path fill="none" stroke="#000000" d="M30.518,-482.7206C32.7064,-518.1921 43.4935,-621.4522 95.9404,-683.3139 103.8022,-692.5871 114.408,-699.8839 125.256,-705.5306"/>
<polygon fill="#000000" stroke="#000000" points="123.8391,-708.7327 134.3702,-709.8929 126.8612,-702.4186 123.8391,-708.7327"/>
</g>
<!-- lib/level.js -->
<g id="node8" class="node">
<title>lib/level.js</title>
<path fill="#e5e5e5" stroke="#000000" d="M1425.6793,-233.6147C1425.6793,-233.6147 1367.6445,-233.6147 1367.6445,-233.6147 1363.5442,-233.6147 1359.444,-229.5145 1359.444,-225.4142 1359.444,-225.4142 1359.444,-217.2137 1359.444,-217.2137 1359.444,-213.1134 1363.5442,-209.0131 1367.6445,-209.0131 1367.6445,-209.0131 1425.6793,-209.0131 1425.6793,-209.0131 1429.7796,-209.0131 1433.8798,-213.1134 1433.8798,-217.2137 1433.8798,-217.2137 1433.8798,-225.4142 1433.8798,-225.4142 1433.8798,-229.5145 1429.7796,-233.6147 1425.6793,-233.6147"/>
<text text-anchor="middle" x="1396.6619" y="-217.1139" font-family="Times,serif" font-size="14.00" fill="#000000">lib/level.js</text>
</g>
<!-- index.js&#45;&gt;lib/level.js -->
<g id="edge7" class="edge">
<title>index.js&#45;&gt;lib/level.js</title>
<path fill="none" stroke="#000000" d="M30.2256,-457.8684C31.74,-396.5333 41.4505,-127.0188 95.9404,-68.3139 179.6148,21.8329 241.9427,-3.3139 364.938,-3.3139 364.938,-3.3139 364.938,-3.3139 1137.4971,-3.3139 1258.9652,-3.3139 1353.1671,-145.2913 1385.0025,-200.0905"/>
<polygon fill="#000000" stroke="#000000" points="1382.0669,-202.0085 1390.0547,-208.9687 1388.1508,-198.5463 1382.0669,-202.0085"/>
</g>
<!-- lib/logger.js -->
<g id="node9" class="node">
<title>lib/logger.js</title>
<path fill="#e5e5e5" stroke="#000000" d="M788.2906,-452.6147C788.2906,-452.6147 721.1452,-452.6147 721.1452,-452.6147 717.0449,-452.6147 712.9447,-448.5145 712.9447,-444.4142 712.9447,-444.4142 712.9447,-436.2137 712.9447,-436.2137 712.9447,-432.1134 717.0449,-428.0131 721.1452,-428.0131 721.1452,-428.0131 788.2906,-428.0131 788.2906,-428.0131 792.3909,-428.0131 796.4911,-432.1134 796.4911,-436.2137 796.4911,-436.2137 796.4911,-444.4142 796.4911,-444.4142 796.4911,-448.5145 792.3909,-452.6147 788.2906,-452.6147"/>
<text text-anchor="middle" x="754.7179" y="-436.1139" font-family="Times,serif" font-size="14.00" fill="#000000">lib/logger.js</text>
</g>
<!-- index.js&#45;&gt;lib/logger.js -->
<g id="edge8" class="edge">
<title>index.js&#45;&gt;lib/logger.js</title>
<path fill="none" stroke="#000000" d="M60.189,-469.0631C171.6582,-464.4489 560.6422,-448.3475 702.4666,-442.4768"/>
<polygon fill="#000000" stroke="#000000" points="702.7949,-445.9663 712.6416,-442.0556 702.5053,-438.9723 702.7949,-445.9663"/>
</g>
<!-- lib/transports/console.js -->
<g id="node10" class="node">
<title>lib/transports/console.js</title>
<path fill="#e5e5e5" stroke="#000000" d="M1015.2984,-233.6147C1015.2984,-233.6147 881.9622,-233.6147 881.9622,-233.6147 877.8619,-233.6147 873.7616,-229.5145 873.7616,-225.4142 873.7616,-225.4142 873.7616,-217.2137 873.7616,-217.2137 873.7616,-213.1134 877.8619,-209.0131 881.9622,-209.0131 881.9622,-209.0131 1015.2984,-209.0131 1015.2984,-209.0131 1019.3987,-209.0131 1023.499,-213.1134 1023.499,-217.2137 1023.499,-217.2137 1023.499,-225.4142 1023.499,-225.4142 1023.499,-229.5145 1019.3987,-233.6147 1015.2984,-233.6147"/>
<text text-anchor="middle" x="948.6303" y="-217.1139" font-family="Times,serif" font-size="14.00" fill="#000000">lib/transports/console.js</text>
</g>
<!-- index.js&#45;&gt;lib/transports/console.js -->
<g id="edge9" class="edge">
<title>index.js&#45;&gt;lib/transports/console.js</title>
<path fill="none" stroke="#000000" d="M30.4929,-457.9532C32.6096,-423.1262 43.2142,-322.9842 95.9404,-265.3139 183.5567,-169.4819 235.0904,-151.3139 364.938,-151.3139 364.938,-151.3139 364.938,-151.3139 556.9184,-151.3139 680.63,-151.3139 822.9399,-185.5669 897.2927,-206.1516"/>
<polygon fill="#000000" stroke="#000000" points="896.7508,-209.6344 907.3241,-208.9605 898.6383,-202.8937 896.7508,-209.6344"/>
</g>
<!-- lib/transports/file.js -->
<g id="node11" class="node">
<title>lib/transports/file.js</title>
<path fill="#e5e5e5" stroke="#000000" d="M1003.1902,-515.6147C1003.1902,-515.6147 894.0704,-515.6147 894.0704,-515.6147 889.9701,-515.6147 885.8698,-511.5145 885.8698,-507.4142 885.8698,-507.4142 885.8698,-499.2137 885.8698,-499.2137 885.8698,-495.1134 889.9701,-491.0131 894.0704,-491.0131 894.0704,-491.0131 1003.1902,-491.0131 1003.1902,-491.0131 1007.2905,-491.0131 1011.3908,-495.1134 1011.3908,-499.2137 1011.3908,-499.2137 1011.3908,-507.4142 1011.3908,-507.4142 1011.3908,-511.5145 1007.2905,-515.6147 1003.1902,-515.6147"/>
<text text-anchor="middle" x="948.6303" y="-499.1139" font-family="Times,serif" font-size="14.00" fill="#000000">lib/transports/file.js</text>
</g>
<!-- index.js&#45;&gt;lib/transports/file.js -->
<g id="edge10" class="edge">
<title>index.js&#45;&gt;lib/transports/file.js</title>
<path fill="none" stroke="#000000" d="M60.1675,-459.4154C169.1389,-421.8553 550.8263,-305.7031 837.9462,-410.3139 877.6416,-424.7768 912.9891,-460.4284 932.5442,-483.1513"/>
<polygon fill="#000000" stroke="#000000" points="929.9088,-485.4557 939.013,-490.8747 935.2752,-480.9611 929.9088,-485.4557"/>
</g>
<!-- lib/transports/file_buffer.js -->
<g id="node12" class="node">
<title>lib/transports/file_buffer.js</title>
<path fill="#e5e5e5" stroke="#000000" d="M829.9746,-586.6147C829.9746,-586.6147 679.4612,-586.6147 679.4612,-586.6147 675.3609,-586.6147 671.2607,-582.5145 671.2607,-578.4142 671.2607,-578.4142 671.2607,-570.2137 671.2607,-570.2137 671.2607,-566.1134 675.3609,-562.0131 679.4612,-562.0131 679.4612,-562.0131 829.9746,-562.0131 829.9746,-562.0131 834.0749,-562.0131 838.1751,-566.1134 838.1751,-570.2137 838.1751,-570.2137 838.1751,-578.4142 838.1751,-578.4142 838.1751,-582.5145 834.0749,-586.6147 829.9746,-586.6147"/>
<text text-anchor="middle" x="754.7179" y="-570.1139" font-family="Times,serif" font-size="14.00" fill="#000000">lib/transports/file_buffer.js</text>
</g>
<!-- index.js&#45;&gt;lib/transports/file_buffer.js -->
<g id="edge11" class="edge">
<title>index.js&#45;&gt;lib/transports/file_buffer.js</title>
<path fill="none" stroke="#000000" d="M60.1582,-481.7787C71.2709,-485.6259 84.048,-489.6188 95.9404,-492.3139 294.4365,-537.2982 532.5572,-559.2401 661.182,-568.524"/>
<polygon fill="#000000" stroke="#000000" points="661.1647,-572.0316 671.388,-569.2507 661.6619,-565.0493 661.1647,-572.0316"/>
</g>
<!-- lib/transports/transport.js -->
<g id="node13" class="node">
<title>lib/transports/transport.js</title>
<path fill="#e5e5e5" stroke="#000000" d="M1207.6624,-226.6147C1207.6624,-226.6147 1067.3318,-226.6147 1067.3318,-226.6147 1063.2315,-226.6147 1059.1313,-222.5145 1059.1313,-218.4142 1059.1313,-218.4142 1059.1313,-210.2137 1059.1313,-210.2137 1059.1313,-206.1134 1063.2315,-202.0131 1067.3318,-202.0131 1067.3318,-202.0131 1207.6624,-202.0131 1207.6624,-202.0131 1211.7627,-202.0131 1215.8629,-206.1134 1215.8629,-210.2137 1215.8629,-210.2137 1215.8629,-218.4142 1215.8629,-218.4142 1215.8629,-222.5145 1211.7627,-226.6147 1207.6624,-226.6147"/>
<text text-anchor="middle" x="1137.4971" y="-210.1139" font-family="Times,serif" font-size="14.00" fill="#000000">lib/transports/transport.js</text>
</g>
<!-- index.js&#45;&gt;lib/transports/transport.js -->
<g id="edge12" class="edge">
<title>index.js&#45;&gt;lib/transports/transport.js</title>
<path fill="none" stroke="#000000" d="M30.863,-457.7567C34.8952,-404.5256 53.1044,-198.137 95.9404,-152.3139 180.6977,-61.6465 240.8236,-77.3139 364.938,-77.3139 364.938,-77.3139 364.938,-77.3139 754.7179,-77.3139 894.6974,-77.3139 1047.5167,-159.5327 1109.2754,-196.5829"/>
<polygon fill="#000000" stroke="#000000" points="1107.6887,-199.7142 1118.0525,-201.9145 1111.3229,-193.7314 1107.6887,-199.7142"/>
</g>
<!-- lib/egg/console_logger.js&#45;&gt;lib/logger.js -->
<g id="edge13" class="edge">
<title>lib/egg/console_logger.js&#45;&gt;lib/logger.js</title>
<path fill="none" stroke="#000000" d="M573.1052,-300.7527C607.8192,-327.4289 689.5838,-390.2613 730.5044,-421.707"/>
<polygon fill="#000000" stroke="#000000" points="728.523,-424.5984 738.5849,-427.9164 732.7883,-419.0479 728.523,-424.5984"/>
</g>
<!-- lib/egg/console_logger.js&#45;&gt;lib/transports/console.js -->
<g id="edge14" class="edge">
<title>lib/egg/console_logger.js&#45;&gt;lib/transports/console.js</title>
<path fill="none" stroke="#000000" d="M629.2209,-275.947C696.3283,-264.4687 796.1445,-247.3957 866.2915,-235.3975"/>
<polygon fill="#000000" stroke="#000000" points="867.1516,-238.8013 876.4184,-233.6654 865.9714,-231.9015 867.1516,-238.8013"/>
</g>
<!-- lib/utils.js -->
<g id="node14" class="node">
<title>lib/utils.js</title>
<path fill="#e5e5e5" stroke="#000000" d="M1314.9154,-478.6147C1314.9154,-478.6147 1260.0676,-478.6147 1260.0676,-478.6147 1255.9674,-478.6147 1251.8671,-474.5145 1251.8671,-470.4142 1251.8671,-470.4142 1251.8671,-462.2137 1251.8671,-462.2137 1251.8671,-458.1134 1255.9674,-454.0131 1260.0676,-454.0131 1260.0676,-454.0131 1314.9154,-454.0131 1314.9154,-454.0131 1319.0156,-454.0131 1323.1159,-458.1134 1323.1159,-462.2137 1323.1159,-462.2137 1323.1159,-470.4142 1323.1159,-470.4142 1323.1159,-474.5145 1319.0156,-478.6147 1314.9154,-478.6147"/>
<text text-anchor="middle" x="1287.4915" y="-462.1139" font-family="Times,serif" font-size="14.00" fill="#000000">lib/utils.js</text>
</g>
<!-- lib/egg/console_logger.js&#45;&gt;lib/utils.js -->
<g id="edge15" class="edge">
<title>lib/egg/console_logger.js&#45;&gt;lib/utils.js</title>
<path fill="none" stroke="#000000" d="M623.602,-300.6482C680.7013,-311.4939 765.0076,-328.1826 837.9462,-345.3139 1007.1218,-385.0488 1048.0328,-400.5568 1215.6798,-446.3139 1224.2067,-448.6413 1233.2951,-451.1503 1242.0384,-453.5784"/>
<polygon fill="#000000" stroke="#000000" points="1241.1427,-456.9621 1251.715,-456.2714 1243.0196,-450.2183 1241.1427,-456.9621"/>
</g>
<!-- lib/egg/custom_logger.js&#45;&gt;lib/egg/logger.js -->
<g id="edge16" class="edge">
<title>lib/egg/custom_logger.js&#45;&gt;lib/egg/logger.js</title>
<path fill="none" stroke="#000000" d="M442.4704,-648.3139C459.1168,-648.3139 476.5329,-648.3139 492.6129,-648.3139"/>
<polygon fill="#000000" stroke="#000000" points="492.9653,-651.814 502.9652,-648.3139 492.9652,-644.814 492.9653,-651.814"/>
</g>
<!-- lib/egg/error_logger.js&#45;&gt;lib/egg/logger.js -->
<g id="edge17" class="edge">
<title>lib/egg/error_logger.js&#45;&gt;lib/egg/logger.js</title>
<path fill="none" stroke="#000000" d="M376.3723,-843.9255C408.4505,-809.1706 499.4962,-710.5277 538.65,-668.1067"/>
<polygon fill="#000000" stroke="#000000" points="541.3335,-670.3597 545.544,-660.6375 536.1896,-665.612 541.3335,-670.3597"/>
</g>
<!-- lib/egg/error_logger.js&#45;&gt;lib/level.js -->
<g id="edge18" class="edge">
<title>lib/egg/error_logger.js&#45;&gt;lib/level.js</title>
<path fill="none" stroke="#000000" d="M435.701,-858.348C513.7951,-860.4148 643.2134,-863.3139 754.7179,-863.3139 754.7179,-863.3139 754.7179,-863.3139 1137.4971,-863.3139 1274.0322,-863.3139 1372.3392,-357.7062 1392.7401,-243.8845"/>
<polygon fill="#000000" stroke="#000000" points="1396.2196,-244.3075 1394.5175,-233.8503 1389.3269,-243.0865 1396.2196,-244.3075"/>
</g>
<!-- lib/egg/error_logger.js&#45;&gt;lib/utils.js -->
<g id="edge19" class="edge">
<title>lib/egg/error_logger.js&#45;&gt;lib/utils.js</title>
<path fill="none" stroke="#000000" d="M399.9014,-868.6161C467.5222,-891.2756 621.3243,-937.3139 754.7179,-937.3139 754.7179,-937.3139 754.7179,-937.3139 948.6303,-937.3139 1078.7512,-937.3139 1134.3531,-918.8886 1215.6798,-817.3139 1256.9242,-765.8009 1279.1321,-558.5432 1285.5255,-489.1107"/>
<polygon fill="#000000" stroke="#000000" points="1289.0387,-489.1198 1286.4468,-478.8469 1282.0667,-488.4939 1289.0387,-489.1198"/>
</g>
<!-- lib/egg/logger.js&#45;&gt;lib/logger.js -->
<g id="edge20" class="edge">
<title>lib/egg/logger.js&#45;&gt;lib/logger.js</title>
<path fill="none" stroke="#000000" d="M562.58,-635.5897C576.7864,-604.9259 616.7614,-526.0336 671.4896,-479.3139 682.1279,-470.2324 695.2388,-462.7976 707.8818,-456.9465"/>
<polygon fill="#000000" stroke="#000000" points="709.6502,-459.9933 717.4101,-452.7798 706.8455,-453.5797 709.6502,-459.9933"/>
</g>
<!-- lib/egg/logger.js&#45;&gt;lib/transports/console.js -->
<g id="edge21" class="edge">
<title>lib/egg/logger.js&#45;&gt;lib/transports/console.js</title>
<path fill="none" stroke="#000000" d="M568.2298,-635.6996C587.6709,-614.5948 629.4068,-571.7469 671.4896,-544.3139 739.3132,-500.101 780.6986,-527.5637 837.9462,-470.3139 904.2029,-404.0547 934.1914,-291.2667 944.3706,-243.6152"/>
<polygon fill="#000000" stroke="#000000" points="947.8199,-244.217 946.3965,-233.7182 940.9621,-242.8131 947.8199,-244.217"/>
</g>
<!-- lib/egg/logger.js&#45;&gt;lib/transports/file.js -->
<g id="edge22" class="edge">
<title>lib/egg/logger.js&#45;&gt;lib/transports/file.js</title>
<path fill="none" stroke="#000000" d="M610.6232,-648.947C669.2653,-647.6345 764.5974,-639.5191 837.9462,-604.3139 877.632,-585.266 913.2141,-547.2694 932.7776,-523.6974"/>
<polygon fill="#000000" stroke="#000000" points="935.66,-525.6997 939.2383,-515.7274 930.2222,-521.2916 935.66,-525.6997"/>
</g>
<!-- lib/egg/logger.js&#45;&gt;lib/transports/file_buffer.js -->
<g id="edge23" class="edge">
<title>lib/egg/logger.js&#45;&gt;lib/transports/file_buffer.js</title>
<path fill="none" stroke="#000000" d="M590.0256,-635.928C623.644,-623.3508 675.8248,-603.8291 712.4197,-590.1384"/>
<polygon fill="#000000" stroke="#000000" points="713.6928,-593.3991 721.8324,-586.6169 711.24,-586.8429 713.6928,-593.3991"/>
</g>
<!-- lib/egg/logger.js&#45;&gt;lib/utils.js -->
<g id="edge24" class="edge">
<title>lib/egg/logger.js&#45;&gt;lib/utils.js</title>
<path fill="none" stroke="#000000" d="M610.7747,-653.4838C667.5238,-657.9042 759.3893,-662.1403 837.9462,-652.3139 1009.8254,-630.8144 1070.1379,-650.2406 1215.6798,-556.3139 1242.6247,-538.9248 1264.0004,-507.9851 1276.205,-487.3077"/>
<polygon fill="#000000" stroke="#000000" points="1279.248,-489.0369 1281.1543,-478.615 1273.1649,-485.5734 1279.248,-489.0369"/>
</g>
<!-- lib/egg/loggers.js&#45;&gt;lib/egg/custom_logger.js -->
<g id="edge25" class="edge">
<title>lib/egg/loggers.js&#45;&gt;lib/egg/custom_logger.js</title>
<path fill="none" stroke="#000000" d="M205.7378,-709.928C238.0968,-697.4043 288.2468,-677.9951 323.5979,-664.3135"/>
<polygon fill="#000000" stroke="#000000" points="325.0865,-667.4904 333.1492,-660.6169 322.56,-660.9623 325.0865,-667.4904"/>
</g>
<!-- lib/egg/loggers.js&#45;&gt;lib/egg/error_logger.js -->
<g id="edge26" class="edge">
<title>lib/egg/loggers.js&#45;&gt;lib/egg/error_logger.js</title>
<path fill="none" stroke="#000000" d="M219.8565,-734.7646C231.0768,-739.3157 242.4471,-745.3679 251.5288,-753.3139 276.0902,-774.804 263.9307,-794.7702 287.5288,-817.3139 296.9733,-826.3364 308.912,-833.724 320.568,-839.5481"/>
<polygon fill="#000000" stroke="#000000" points="319.2628,-842.8019 329.8022,-843.8851 322.2387,-836.4659 319.2628,-842.8019"/>
</g>
<!-- lib/egg/loggers.js&#45;&gt;lib/egg/logger.js -->
<g id="edge27" class="edge">
<title>lib/egg/loggers.js&#45;&gt;lib/egg/logger.js</title>
<path fill="none" stroke="#000000" d="M230.0979,-714.6506C284.6485,-706.8648 369.5428,-693.773 442.3472,-678.3139 462.5576,-674.0225 484.5541,-668.4779 503.8207,-663.3251"/>
<polygon fill="#000000" stroke="#000000" points="504.8833,-666.6636 513.6232,-660.6749 503.0563,-659.9062 504.8833,-666.6636"/>
</g>
<!-- lib/egg/loggers.js&#45;&gt;lib/utils.js -->
<g id="edge28" class="edge">
<title>lib/egg/loggers.js&#45;&gt;lib/utils.js</title>
<path fill="none" stroke="#000000" d="M216.1238,-734.6808C286.3341,-754.0401 431.4736,-789.3139 556.9184,-789.3139 556.9184,-789.3139 556.9184,-789.3139 948.6303,-789.3139 1089.5665,-789.3139 1122.6104,-724.1492 1215.6798,-618.3139 1250.3114,-578.9321 1271.7063,-519.949 1281.3844,-488.2833"/>
<polygon fill="#000000" stroke="#000000" points="1284.7509,-489.2411 1284.2195,-478.6596 1278.0362,-487.2629 1284.7509,-489.2411"/>
</g>
<!-- lib/logger.js&#45;&gt;lib/utils.js -->
<g id="edge29" class="edge">
<title>lib/logger.js&#45;&gt;lib/utils.js</title>
<path fill="none" stroke="#000000" d="M796.5238,-442.3541C894.7082,-447.1456 1139.4256,-459.0881 1241.5697,-464.0729"/>
<polygon fill="#000000" stroke="#000000" points="1241.4187,-467.5696 1251.5774,-464.5613 1241.7599,-460.5779 1241.4187,-467.5696"/>
</g>
<!-- lib/transports/console.js&#45;&gt;lib/level.js -->
<g id="edge30" class="edge">
<title>lib/transports/console.js&#45;&gt;lib/level.js</title>
<path fill="none" stroke="#000000" d="M977.1137,-208.9553C999.0955,-200.1211 1030.517,-188.9998 1059.3144,-184.3139 1161.9874,-167.6073 1283.4961,-191.5434 1349.0244,-208.0087"/>
<polygon fill="#000000" stroke="#000000" points="1348.4932,-211.4856 1359.0492,-210.5797 1350.2322,-204.7051 1348.4932,-211.4856"/>
</g>
<!-- lib/transports/console.js&#45;&gt;lib/transports/transport.js -->
<g id="edge31" class="edge">
<title>lib/transports/console.js&#45;&gt;lib/transports/transport.js</title>
<path fill="none" stroke="#000000" d="M1023.5467,-218.5373C1031.9854,-218.2245 1040.6415,-217.9037 1049.2293,-217.5854"/>
<polygon fill="#000000" stroke="#000000" points="1049.3987,-221.0816 1059.2622,-217.2136 1049.1394,-214.0864 1049.3987,-221.0816"/>
</g>
<!-- lib/transports/console.js&#45;&gt;lib/utils.js -->
<g id="edge32" class="edge">
<title>lib/transports/console.js&#45;&gt;lib/utils.js</title>
<path fill="none" stroke="#000000" d="M1014.0569,-233.6259C1072.8376,-247.5939 1158.463,-275.499 1215.6798,-327.3139 1251.3396,-359.6071 1272.0304,-413.7512 1281.3958,-444.0526"/>
<polygon fill="#000000" stroke="#000000" points="1278.0557,-445.1002 1284.2421,-453.7013 1284.7697,-443.1196 1278.0557,-445.1002"/>
</g>
<!-- lib/transports/file.js&#45;&gt;lib/transports/transport.js -->
<g id="edge33" class="edge">
<title>lib/transports/file.js&#45;&gt;lib/transports/transport.js</title>
<path fill="none" stroke="#000000" d="M956.7457,-490.896C986.1072,-445.9676 1087.0114,-291.5661 1123.8743,-235.1593"/>
<polygon fill="#000000" stroke="#000000" points="1126.8712,-236.9713 1129.412,-226.6856 1121.0115,-233.1419 1126.8712,-236.9713"/>
</g>
<!-- lib/transports/file.js&#45;&gt;lib/utils.js -->
<g id="edge34" class="edge">
<title>lib/transports/file.js&#45;&gt;lib/utils.js</title>
<path fill="none" stroke="#000000" d="M1011.5733,-496.4412C1078.1991,-489.1664 1181.7699,-477.8576 1241.2521,-471.3628"/>
<polygon fill="#000000" stroke="#000000" points="1241.9109,-474.8117 1251.4719,-470.2469 1241.151,-467.8531 1241.9109,-474.8117"/>
</g>
<!-- lib/transports/file_buffer.js&#45;&gt;lib/transports/file.js -->
<g id="edge35" class="edge">
<title>lib/transports/file_buffer.js&#45;&gt;lib/transports/file.js</title>
<path fill="none" stroke="#000000" d="M788.4949,-561.9467C820.9284,-550.0713 870.0686,-532.0789 905.3556,-519.1587"/>
<polygon fill="#000000" stroke="#000000" points="906.7287,-522.3833 914.9157,-515.6584 904.3219,-515.81 906.7287,-522.3833"/>
</g>
<!-- lib/transports/file_buffer.js&#45;&gt;lib/utils.js -->
<g id="edge36" class="edge">
<title>lib/transports/file_buffer.js&#45;&gt;lib/utils.js</title>
<path fill="none" stroke="#000000" d="M838.2519,-572.4614C932.4499,-568.1281 1088.9999,-554.0978 1215.6798,-509.3139 1232.266,-503.4504 1249.2246,-493.5163 1262.4941,-484.6729"/>
<polygon fill="#000000" stroke="#000000" points="1264.7895,-487.3418 1271.0413,-478.7882 1260.8199,-481.5762 1264.7895,-487.3418"/>
</g>
<!-- lib/transports/transport.js&#45;&gt;lib/level.js -->
<g id="edge37" class="edge">
<title>lib/transports/transport.js&#45;&gt;lib/level.js</title>
<path fill="none" stroke="#000000" d="M1215.9584,-216.4332C1259.3995,-217.6065 1311.9693,-219.0264 1349.1806,-220.0315"/>
<polygon fill="#000000" stroke="#000000" points="1349.1576,-223.532 1359.2485,-220.3034 1349.3467,-216.5346 1349.1576,-223.532"/>
</g>
<!-- lib/transports/transport.js&#45;&gt;lib/utils.js -->
<g id="edge38" class="edge">
<title>lib/transports/transport.js&#45;&gt;lib/utils.js</title>
<path fill="none" stroke="#000000" d="M1176.4952,-226.6539C1190.4719,-232.7523 1205.3179,-241.4191 1215.6798,-253.3139 1264.9757,-309.9029 1280.7332,-401.6747 1285.5224,-443.833"/>
<polygon fill="#000000" stroke="#000000" points="1282.0517,-444.298 1286.5596,-453.8859 1289.0147,-443.5794 1282.0517,-444.298"/>
</g>
<!-- lib/utils.js&#45;&gt;lib/level.js -->
<g id="edge39" class="edge">
<title>lib/utils.js&#45;&gt;lib/level.js</title>
<path fill="none" stroke="#000000" d="M1293.0554,-453.8275C1310.5756,-414.5086 1364.7589,-292.9106 1386.9916,-243.0161"/>
<polygon fill="#000000" stroke="#000000" points="1390.236,-244.334 1391.1092,-233.7752 1383.8421,-241.4849 1390.236,-244.334"/>
</g>
</g>
</svg>
