
                <svg xmlns="http://www.w3.org/2000/svg" xmlns:xlink="http://www.w3.org/1999/xlink" width="519" height="702" shape-rendering="optimizeSpeed">
                
                <g>
                   <rect x="50" y="65" width="396.59999999999997" height="30" rx="3" ry="3" style="fill:#90caf9; stroke:#444; stroke-width:1"></rect>
                   <title>module.exports.Logger = require('./lib/logger')</title>
            <text x="65" y="85" font-family="monospace" font-size="13" fill="#222">
                <tspan x="65" y="85">module.exports.Logger = require('./lib/logger')</tspan>
            </text>
                   
                   
                </g>
                <g>
                   <rect x="50" y="113.5" width="443.4" height="30" rx="3" ry="3" style="fill:#90caf9; stroke:#444; stroke-width:1"></rect>
                   <title>module.exports.Transport = require('./lib/transports/transport')</title>
            <text x="65" y="133.5" font-family="monospace" font-size="13" fill="#222">
                <tspan x="65" y="133.5">module.exports.Transport = require('./lib/transpor...</tspan>
            </text>
                   
                   
                </g>
                <g>
                   <rect x="50" y="162" width="443.4" height="30" rx="3" ry="3" style="fill:#90caf9; stroke:#444; stroke-width:1"></rect>
                   <title>module.exports.FileBufferTransport = require('./lib/transports/file_buffer')</title>
            <text x="65" y="182" font-family="monospace" font-size="13" fill="#222">
                <tspan x="65" y="182">module.exports.FileBufferTransport = require('./li...</tspan>
            </text>
                   
                   
                </g>
                <g>
                   <rect x="50" y="210.5" width="443.4" height="30" rx="3" ry="3" style="fill:#90caf9; stroke:#444; stroke-width:1"></rect>
                   <title>module.exports.FileTransport = require('./lib/transports/file')</title>
            <text x="65" y="230.5" font-family="monospace" font-size="13" fill="#222">
                <tspan x="65" y="230.5">module.exports.FileTransport = require('./lib/tran...</tspan>
            </text>
                   
                   
                </g>
                <g>
                   <rect x="50" y="259" width="443.4" height="30" rx="3" ry="3" style="fill:#90caf9; stroke:#444; stroke-width:1"></rect>
                   <title>module.exports.ConsoleTransport = require('./lib/transports/console')</title>
            <text x="65" y="279" font-family="monospace" font-size="13" fill="#222">
                <tspan x="65" y="279">module.exports.ConsoleTransport = require('./lib/t...</tspan>
            </text>
                   
                   
                </g>
                <g>
                   <rect x="50" y="307.5" width="443.4" height="30" rx="3" ry="3" style="fill:#90caf9; stroke:#444; stroke-width:1"></rect>
                   <title>module.exports.EggLogger = require('./lib/egg/logger')</title>
            <text x="65" y="327.5" font-family="monospace" font-size="13" fill="#222">
                <tspan x="65" y="327.5">module.exports.EggLogger = require('./lib/egg/logg...</tspan>
            </text>
                   
                   
                </g>
                <g>
                   <rect x="50" y="356" width="443.4" height="30" rx="3" ry="3" style="fill:#90caf9; stroke:#444; stroke-width:1"></rect>
                   <title>module.exports.EggErrorLogger = require('./lib/egg/error_logger')</title>
            <text x="65" y="376" font-family="monospace" font-size="13" fill="#222">
                <tspan x="65" y="376">module.exports.EggErrorLogger = require('./lib/egg...</tspan>
            </text>
                   
                   
                </g>
                <g>
                   <rect x="50" y="404.5" width="443.4" height="30" rx="3" ry="3" style="fill:#90caf9; stroke:#444; stroke-width:1"></rect>
                   <title>module.exports.EggConsoleLogger = require('./lib/egg/console_logger')</title>
            <text x="65" y="424.5" font-family="monospace" font-size="13" fill="#222">
                <tspan x="65" y="424.5">module.exports.EggConsoleLogger = require('./lib/e...</tspan>
            </text>
                   
                   
                </g>
                <g>
                   <rect x="50" y="453" width="443.4" height="30" rx="3" ry="3" style="fill:#90caf9; stroke:#444; stroke-width:1"></rect>
                   <title>module.exports.EggCustomLogger = require('./lib/egg/custom_logger')</title>
            <text x="65" y="473" font-family="monospace" font-size="13" fill="#222">
                <tspan x="65" y="473">module.exports.EggCustomLogger = require('./lib/eg...</tspan>
            </text>
                   
                   
                </g>
                <g>
                   <rect x="50" y="501.5" width="443.4" height="30" rx="3" ry="3" style="fill:#90caf9; stroke:#444; stroke-width:1"></rect>
                   <title>module.exports.EggContextLogger = require('./lib/egg/context_logger')</title>
            <text x="65" y="521.5" font-family="monospace" font-size="13" fill="#222">
                <tspan x="65" y="521.5">module.exports.EggContextLogger = require('./lib/e...</tspan>
            </text>
                   
                   
                </g>
                <g>
                   <rect x="50" y="550" width="443.4" height="30" rx="3" ry="3" style="fill:#90caf9; stroke:#444; stroke-width:1"></rect>
                   <title>module.exports.EggLoggers = require('./lib/egg/loggers')</title>
            <text x="65" y="570" font-family="monospace" font-size="13" fill="#222">
                <tspan x="65" y="570">module.exports.EggLoggers = require('./lib/egg/log...</tspan>
            </text>
                   
                   
                </g>
                <g>
                   <rect x="50" y="598.5" width="388.8" height="30" rx="3" ry="3" style="fill:#90caf9; stroke:#444; stroke-width:1"></rect>
                   <title>module.exports.levels = require('./lib/level')</title>
            <text x="65" y="618.5" font-family="monospace" font-size="13" fill="#222">
                <tspan x="65" y="618.5">module.exports.levels = require('./lib/level')</tspan>
            </text>
                   
                   
                </g>
                <g>
                   <rect x="50" y="647" width="443.4" height="30" rx="2" ry="2" style="fill:#C5E1A5; stroke:#444; stroke-width:1"></rect>
                   <title>Object.assign(module.exports, module.exports.levels)</title>
            <text x="65" y="667" font-family="monospace" font-size="13" fill="#222">
                <tspan x="65" y="667">Object.assign(module.exports, module.exports.level...</tspan>
            </text>
                   
                   
                </g>
            <g>
               <rect x="25" y="13.75" width="216.6" height="24" style="fill:#fff59d; stroke:#444; stroke-width:1"></rect>
               <circle cx="25" cy="25" r="15" style="fill:#fff59d; stroke:#444; stroke-width:1"></circle>
               <title>Program: source module</title>
            <text x="55" y="30" font-family="monospace" font-size="13" fill="#222">
                <tspan x="55" y="30">Program: source module</tspan>
            </text>
            </g>
            <g>
               <path d="M25, 40 L25 76 Q25 80
                29 80
                L42 80 " style="fill:none; stroke:#444; stroke-width:1"></path>
               <path d="M42, 77 L50, 80 L42, 83 Z" fill="#333"></path>
            </g>
            <g>
               <path d="M25, 40 L25 124.5 Q25 128.5
                29 128.5
                L42 128.5 " style="fill:none; stroke:#444; stroke-width:1"></path>
               <path d="M42, 125.5 L50, 128.5 L42, 131.5 Z" fill="#333"></path>
            </g>
            <g>
               <path d="M25, 40 L25 173 Q25 177
                29 177
                L42 177 " style="fill:none; stroke:#444; stroke-width:1"></path>
               <path d="M42, 174 L50, 177 L42, 180 Z" fill="#333"></path>
            </g>
            <g>
               <path d="M25, 40 L25 221.5 Q25 225.5
                29 225.5
                L42 225.5 " style="fill:none; stroke:#444; stroke-width:1"></path>
               <path d="M42, 222.5 L50, 225.5 L42, 228.5 Z" fill="#333"></path>
            </g>
            <g>
               <path d="M25, 40 L25 270 Q25 274
                29 274
                L42 274 " style="fill:none; stroke:#444; stroke-width:1"></path>
               <path d="M42, 271 L50, 274 L42, 277 Z" fill="#333"></path>
            </g>
            <g>
               <path d="M25, 40 L25 318.5 Q25 322.5
                29 322.5
                L42 322.5 " style="fill:none; stroke:#444; stroke-width:1"></path>
               <path d="M42, 319.5 L50, 322.5 L42, 325.5 Z" fill="#333"></path>
            </g>
            <g>
               <path d="M25, 40 L25 367 Q25 371
                29 371
                L42 371 " style="fill:none; stroke:#444; stroke-width:1"></path>
               <path d="M42, 368 L50, 371 L42, 374 Z" fill="#333"></path>
            </g>
            <g>
               <path d="M25, 40 L25 415.5 Q25 419.5
                29 419.5
                L42 419.5 " style="fill:none; stroke:#444; stroke-width:1"></path>
               <path d="M42, 416.5 L50, 419.5 L42, 422.5 Z" fill="#333"></path>
            </g>
            <g>
               <path d="M25, 40 L25 464 Q25 468
                29 468
                L42 468 " style="fill:none; stroke:#444; stroke-width:1"></path>
               <path d="M42, 465 L50, 468 L42, 471 Z" fill="#333"></path>
            </g>
            <g>
               <path d="M25, 40 L25 512.5 Q25 516.5
                29 516.5
                L42 516.5 " style="fill:none; stroke:#444; stroke-width:1"></path>
               <path d="M42, 513.5 L50, 516.5 L42, 519.5 Z" fill="#333"></path>
            </g>
            <g>
               <path d="M25, 40 L25 561 Q25 565
                29 565
                L42 565 " style="fill:none; stroke:#444; stroke-width:1"></path>
               <path d="M42, 562 L50, 565 L42, 568 Z" fill="#333"></path>
            </g>
            <g>
               <path d="M25, 40 L25 609.5 Q25 613.5
                29 613.5
                L42 613.5 " style="fill:none; stroke:#444; stroke-width:1"></path>
               <path d="M42, 610.5 L50, 613.5 L42, 616.5 Z" fill="#333"></path>
            </g>
            <g>
               <path d="M25, 40 L25 658 Q25 662
                29 662
                L42 662 " style="fill:none; stroke:#444; stroke-width:1"></path>
               <path d="M42, 659 L50, 662 L42, 665 Z" fill="#333"></path>
            </g>
            </svg>