
                <svg xmlns="http://www.w3.org/2000/svg" xmlns:xlink="http://www.w3.org/1999/xlink" width="791" height="1046" shape-rendering="optimizeSpeed">
                
                <g>
                   <rect x="50" y="65" width="303" height="30" rx="3" ry="3" style="fill:#90caf9; stroke:#444; stroke-width:1"></rect>
                   <title>const Logger = require('../logger')</title>
            <text x="65" y="85" font-family="monospace" font-size="13" fill="#222">
                <tspan x="65" y="85">const Logger = require('../logger')</tspan>
            </text>
                   
                   
                </g>
                <g>
                   <rect x="50" y="113.5" width="443.4" height="30" rx="3" ry="3" style="fill:#90caf9; stroke:#444; stroke-width:1"></rect>
                   <title>const ConsoleTransport = require('../transports/console')</title>
            <text x="65" y="133.5" font-family="monospace" font-size="13" fill="#222">
                <tspan x="65" y="133.5">const ConsoleTransport = require('../transports/co...</tspan>
            </text>
                   
                   
                </g>
                <g>
                   <rect x="50" y="162" width="287.4" height="30" rx="3" ry="3" style="fill:#90caf9; stroke:#444; stroke-width:1"></rect>
                   <title>const utils = require('../utils')</title>
            <text x="65" y="182" font-family="monospace" font-size="13" fill="#222">
                <tspan x="65" y="182">const utils = require('../utils')</tspan>
            </text>
                   
                   
                </g>
            <g>
                <rect x="50" y="225.5" width="323" height="30" style="fill:#80cbc4; stroke:#444; stroke-width:1"></rect>
                    
                <line x1="60" y1="225.5" x2="60" y2="255.5" style="fill:#80cbc4; stroke:#444; stroke-width:1"></line>
                <line x1="363" y1="225.5" x2="363" y2="255.5" style="fill:#80cbc4; stroke:#444; stroke-width:1"></line>
             
                <title>class ConsoleLogger  extends Logger</title>
            <text x="75" y="245.5" font-family="monospace" font-size="13" fill="#222">
                <tspan x="75" y="245.5">class ConsoleLogger  extends Logger</tspan>
            </text>
                
            </g>
            <g>
                <rect x="87" y="274" width="206" height="30" style="fill:#a5d6a7; stroke:#444; stroke-width:1"></rect>
                    
                <line x1="97" y1="274" x2="97" y2="304" style="fill:#a5d6a7; stroke:#444; stroke-width:1"></line>
                <line x1="283" y1="274" x2="283" y2="304" style="fill:#a5d6a7; stroke:#444; stroke-width:1"></line>
             
                <title>constructor(options)</title>
            <text x="112" y="294" font-family="monospace" font-size="13" fill="#222">
                <tspan x="112" y="294">constructor(options)</tspan>
            </text>
                
            </g>
                <g>
                   <rect x="124" y="322.5" width="139.2" height="30" rx="2" ry="2" style="fill:#C5E1A5; stroke:#444; stroke-width:1"></rect>
                   <title>super(options)</title>
            <text x="139" y="342.5" font-family="monospace" font-size="13" fill="#222">
                <tspan x="139" y="342.5">super(options)</tspan>
            </text>
                   
                   
                </g>
                <g>
                   <rect x="124" y="371" width="435.59999999999997" height="30" rx="3" ry="3" style="fill:#90caf9; stroke:#444; stroke-width:1"></rect>
                   <title>new ConsoleTransport({
  level: this.options.level,
  formatter: utils.consoleFormatter
})</title>
            <text x="139" y="391" font-family="monospace" font-size="13" fill="#222">
                <tspan x="139" y="391">new ConsoleTransport({
  level: this.options.level...</tspan>
            </text>
                   
                   
                </g>
                <g>
                   <rect x="124" y="419.5" width="53.4" height="30" rx="3" ry="3" style="fill:#90caf9; stroke:#444; stroke-width:1"></rect>
                   <title>{*}</title>
            <text x="139" y="439.5" font-family="monospace" font-size="13" fill="#222">
                <tspan x="139" y="439.5">{*}</tspan>
            </text>
                   
                   
                </g>
                <g>
                   <rect x="161" y="468" width="225" height="30" rx="2" ry="2" style="fill:#90caf9; stroke:#444; stroke-width:1"></rect>
                   <title>level: this.options.level</title>
            <text x="176" y="488" font-family="monospace" font-size="13" fill="#222">
                <tspan x="176" y="488">level: this.options.level</tspan>
            </text>
                   
                   
                </g>
                <g>
                   <rect x="161" y="516.5" width="287.4" height="30" rx="2" ry="2" style="fill:#90caf9; stroke:#444; stroke-width:1"></rect>
                   <title>formatter: utils.consoleFormatter</title>
            <text x="176" y="536.5" font-family="monospace" font-size="13" fill="#222">
                <tspan x="176" y="536.5">formatter: utils.consoleFormatter</tspan>
            </text>
                   
                   
                </g>
                <g>
                   <rect x="124" y="565" width="435.59999999999997" height="30" rx="2" ry="2" style="fill:#C5E1A5; stroke:#444; stroke-width:1"></rect>
                   <title>this.set('console', new ConsoleTransport({
  level: this.options.level,
  formatter: utils.consoleFormatter
}))</title>
            <text x="139" y="585" font-family="monospace" font-size="13" fill="#222">
                <tspan x="139" y="585">this.set('console', new ConsoleTransport({
  level...</tspan>
            </text>
                   
                   
                </g>
            <g>
                <rect x="87" y="628.5" width="128" height="30" style="fill:#a5d6a7; stroke:#444; stroke-width:1"></rect>
                    
                <line x1="97" y1="628.5" x2="97" y2="658.5" style="fill:#a5d6a7; stroke:#444; stroke-width:1"></line>
                <line x1="205" y1="628.5" x2="205" y2="658.5" style="fill:#a5d6a7; stroke:#444; stroke-width:1"></line>
             
                <title>defaults()</title>
            <text x="112" y="648.5" font-family="monospace" font-size="13" fill="#222">
                <tspan x="112" y="648.5">defaults()</tspan>
            </text>
                
            </g>
            <g>
                <rect x="124" y="677" width="76.8" height="30" rx="3" ry="3" style="fill:#90caf9; stroke:#444; stroke-width:1"></rect>
                
                <line x1="200.8" y1="687" x2="205.8" y2="687" style="fill:#a5d6a7; stroke:#444; stroke-width:1"></line>
                
                <line x1="200.8" y1="697" x2="205.8" y2="697" style="fill:#a5d6a7; stroke:#444; stroke-width:1"></line>

                <path d="M205.8, 681 L221.8, 692 L205.8, 703 Z" fill="#a5d6a7" stroke="#444" stroke-width="1"></path>
                             
                <title>return</title>
            <text x="139" y="697" font-family="monospace" font-size="13" fill="#222">
                <tspan x="139" y="697">return</tspan>
            </text>
                
            </g>
                <g>
                   <rect x="161" y="725.5" width="53.4" height="30" rx="3" ry="3" style="fill:#90caf9; stroke:#444; stroke-width:1"></rect>
                   <title>{*}</title>
            <text x="176" y="745.5" font-family="monospace" font-size="13" fill="#222">
                <tspan x="176" y="745.5">{*}</tspan>
            </text>
                   
                   
                </g>
                <g>
                   <rect x="198" y="774" width="154.8" height="30" rx="2" ry="2" style="fill:#90caf9; stroke:#444; stroke-width:1"></rect>
                   <title>encoding: 'utf8'</title>
            <text x="213" y="794" font-family="monospace" font-size="13" fill="#222">
                <tspan x="213" y="794">encoding: 'utf8'</tspan>
            </text>
                   
                   
                </g>
                <g>
                   <rect x="198" y="822.5" width="443.4" height="30" rx="2" ry="2" style="fill:#90caf9; stroke:#444; stroke-width:1"></rect>
                   <title>level: process.env.NODE_ENV === 'production' ? 'INFO' : 'WARN'</title>
            <text x="213" y="842.5" font-family="monospace" font-size="13" fill="#222">
                <tspan x="213" y="842.5">level: process.env.NODE_ENV === 'production' ? 'IN...</tspan>
            </text>
                   
                   
                </g><g>
            <rect x="265" y="886" width="364.2" height="30" rx="3" ry="3" style="fill:#ce93d8; stroke:#444; stroke-width:1"></rect>                
            <polygon points="235,901 265,871 295,901 265,931" style="fill:#ce93d8; stroke:#444; stroke-width:1"></polygon>
            <title>(process.env.NODE_ENV === 'production')</title>
            <text x="310" y="906" font-family="monospace" font-size="13" fill="#222">
                <tspan x="310" y="906">(process.env.NODE_ENV === 'production')</tspan>
            </text>
            
            <text x="261.1" y="906" font-family="monospace" font-size="13" fill="#222">?</text> <text x="272.8" y="932.95" font-family="monospace" font-size="13" fill="#222">+</text> <text x="633.1" y="899.05" font-family="monospace" font-size="13" fill="#222">-</text>
        </g>
                <g>
                   <rect x="285" y="941" width="76.8" height="30" rx="3" ry="3" style="fill:#90caf9; stroke:#444; stroke-width:1"></rect>
                   <title>'INFO'</title>
            <text x="300" y="961" font-family="monospace" font-size="13" fill="#222">
                <tspan x="300" y="961">'INFO'</tspan>
            </text>
                   
                   
                </g>
                <g>
                   <rect x="689.2" y="941" width="76.8" height="30" rx="3" ry="3" style="fill:#90caf9; stroke:#444; stroke-width:1"></rect>
                   <title>'WARN'</title>
            <text x="704.2" y="961" font-family="monospace" font-size="13" fill="#222">
                <tspan x="704.2" y="961">'WARN'</tspan>
            </text>
                   
                   
                </g>
                <g>
                   <rect x="50" y="991" width="264" height="30" rx="3" ry="3" style="fill:#90caf9; stroke:#444; stroke-width:1"></rect>
                   <title>module.exports = ConsoleLogger</title>
            <text x="65" y="1011" font-family="monospace" font-size="13" fill="#222">
                <tspan x="65" y="1011">module.exports = ConsoleLogger</tspan>
            </text>
                   
                   
                </g>
            <g>
               <rect x="25" y="13.75" width="216.6" height="24" style="fill:#fff59d; stroke:#444; stroke-width:1"></rect>
               <circle cx="25" cy="25" r="15" style="fill:#fff59d; stroke:#444; stroke-width:1"></circle>
               <title>Program: source module</title>
            <text x="55" y="30" font-family="monospace" font-size="13" fill="#222">
                <tspan x="55" y="30">Program: source module</tspan>
            </text>
            </g>
            <g>
               <path d="M25, 40 L25 76 Q25 80
                29 80
                L42 80 " style="fill:none; stroke:#444; stroke-width:1"></path>
               <path d="M42, 77 L50, 80 L42, 83 Z" fill="#333"></path>
            </g>
            <g>
               <path d="M25, 40 L25 124.5 Q25 128.5
                29 128.5
                L42 128.5 " style="fill:none; stroke:#444; stroke-width:1"></path>
               <path d="M42, 125.5 L50, 128.5 L42, 131.5 Z" fill="#333"></path>
            </g>
            <g>
               <path d="M25, 40 L25 173 Q25 177
                29 177
                L42 177 " style="fill:none; stroke:#444; stroke-width:1"></path>
               <path d="M42, 174 L50, 177 L42, 180 Z" fill="#333"></path>
            </g>
            <g>
               <path d="M25, 40 L25 236.5 Q25 240.5
                29 240.5
                L42 240.5 " style="fill:none; stroke:#444; stroke-width:1"></path>
               <path d="M42, 237.5 L50, 240.5 L42, 243.5 Z" fill="#333"></path>
            </g>
            <g>
               <path d="M68.5, 255.5 L68.5 285 Q68.5 289
                72.5 289
                L79 289 " style="fill:none; stroke:#444; stroke-width:1"></path>
               <path d="M79, 286 L87, 289 L79, 292 Z" fill="#333"></path>
            </g>
            <g>
               <path d="M105.5, 304 L105.5 333.5 Q105.5 337.5
                109.5 337.5
                L116 337.5 " style="fill:none; stroke:#444; stroke-width:1"></path>
               <path d="M116, 334.5 L124, 337.5 L116, 340.5 Z" fill="#333"></path>
            </g>
            <g>
               <path d="M105.5, 304 L105.5 382 Q105.5 386
                109.5 386
                L116 386 " style="fill:none; stroke:#444; stroke-width:1"></path>
               <path d="M116, 383 L124, 386 L116, 389 Z" fill="#333"></path>
            </g>
            <g>
               <path d="M105.5, 304 L105.5 430.5 Q105.5 434.5
                109.5 434.5
                L116 434.5 " style="fill:none; stroke:#444; stroke-width:1"></path>
               <path d="M116, 431.5 L124, 434.5 L116, 437.5 Z" fill="#333"></path>
            </g>
            <g>
               <path d="M142.5, 449.5 L142.5 479 Q142.5 483
                146.5 483
                L161 483 " style="fill:none; stroke:#444; stroke-width:1"></path>
               false
            </g>
            <g>
               <path d="M142.5, 449.5 L142.5 527.5 Q142.5 531.5
                146.5 531.5
                L161 531.5 " style="fill:none; stroke:#444; stroke-width:1"></path>
               false
            </g>
            <g>
               <path d="M105.5, 304 L105.5 576 Q105.5 580
                109.5 580
                L116 580 " style="fill:none; stroke:#444; stroke-width:1"></path>
               <path d="M116, 577 L124, 580 L116, 583 Z" fill="#333"></path>
            </g>
            <g>
               <path d="M68.5, 255.5 L68.5 639.5 Q68.5 643.5
                72.5 643.5
                L79 643.5 " style="fill:none; stroke:#444; stroke-width:1"></path>
               <path d="M79, 640.5 L87, 643.5 L79, 646.5 Z" fill="#333"></path>
            </g>
            <g>
               <path d="M105.5, 658.5 L105.5 688 Q105.5 692
                109.5 692
                L116 692 " style="fill:none; stroke:#444; stroke-width:1"></path>
               <path d="M116, 689 L124, 692 L116, 695 Z" fill="#333"></path>
            </g>
            <g>
               <path d="M142.5, 707 L142.5 736.5 Q142.5 740.5
                146.5 740.5
                L153 740.5 " style="fill:none; stroke:#444; stroke-width:1"></path>
               <path d="M153, 737.5 L161, 740.5 L153, 743.5 Z" fill="#333"></path>
            </g>
            <g>
               <path d="M179.5, 755.5 L179.5 785 Q179.5 789
                183.5 789
                L198 789 " style="fill:none; stroke:#444; stroke-width:1"></path>
               false
            </g>
            <g>
               <path d="M179.5, 755.5 L179.5 833.5 Q179.5 837.5
                183.5 837.5
                L198 837.5 " style="fill:none; stroke:#444; stroke-width:1"></path>
               false
            </g>
            <g>
               <path d="M216.5, 852.5 L216.5 897 Q216.5 901
                220.5 901
                L227 901 " style="fill:none; stroke:#444; stroke-width:1"></path>
               <path d="M227, 898 L235, 901 L227, 904 Z" fill="#333"></path>
            </g>
            <g>
               <path d="M265, 931 L265 952 Q265 956
                269 956
                L277 956 " style="fill:none; stroke:#444; stroke-width:1"></path>
               <path d="M277, 953 L285, 956 L277, 959 Z" fill="#333"></path>
            </g>
            <g>
               <path d="M629.2, 901 L665.2 901  Q669.2 901
                669.2 905
                L669.2 948 Q669.2 956
                673.2 956
                L681.2 956 " style="fill:none; stroke:#444; stroke-width:1"></path>
               <path d="M681.2, 953 L689.2, 956 L681.2, 959 Z" fill="#333"></path>
            </g>
            <g>
               <path d="M25, 40 L25 1002 Q25 1006
                29 1006
                L42 1006 " style="fill:none; stroke:#444; stroke-width:1"></path>
               <path d="M42, 1003 L50, 1006 L42, 1009 Z" fill="#333"></path>
            </g>
            </svg>