
                <svg xmlns="http://www.w3.org/2000/svg" xmlns:xlink="http://www.w3.org/1999/xlink" width="643" height="3070" shape-rendering="optimizeSpeed">
                
                <g>
                   <rect x="50" y="65" width="217.2" height="30" rx="3" ry="3" style="fill:#90caf9; stroke:#444; stroke-width:1"></rect>
                   <title>const fs = require('fs')</title>
            <text x="65" y="85" font-family="monospace" font-size="13" fill="#222">
                <tspan x="65" y="85">const fs = require('fs')</tspan>
            </text>
                   
                   
                </g>
                <g>
                   <rect x="50" y="113.5" width="248.4" height="30" rx="3" ry="3" style="fill:#90caf9; stroke:#444; stroke-width:1"></rect>
                   <title>const path = require('path')</title>
            <text x="65" y="133.5" font-family="monospace" font-size="13" fill="#222">
                <tspan x="65" y="133.5">const path = require('path')</tspan>
            </text>
                   
                   
                </g>
                <g>
                   <rect x="50" y="162" width="279.6" height="30" rx="3" ry="3" style="fill:#90caf9; stroke:#444; stroke-width:1"></rect>
                   <title>const assert = require('assert')</title>
            <text x="65" y="182" font-family="monospace" font-size="13" fill="#222">
                <tspan x="65" y="182">const assert = require('assert')</tspan>
            </text>
                   
                   
                </g>
                <g>
                   <rect x="50" y="210.5" width="279.6" height="30" rx="3" ry="3" style="fill:#90caf9; stroke:#444; stroke-width:1"></rect>
                   <title>const mkdirp = require('mkdirp')</title>
            <text x="65" y="230.5" font-family="monospace" font-size="13" fill="#222">
                <tspan x="65" y="230.5">const mkdirp = require('mkdirp')</tspan>
            </text>
                   
                   
                </g>
                <g>
                   <rect x="50" y="259" width="295.2" height="30" rx="3" ry="3" style="fill:#90caf9; stroke:#444; stroke-width:1"></rect>
                   <title>const utility = require('utility')</title>
            <text x="65" y="279" font-family="monospace" font-size="13" fill="#222">
                <tspan x="65" y="279">const utility = require('utility')</tspan>
            </text>
                   
                   
                </g>
                <g>
                   <rect x="50" y="307.5" width="357.59999999999997" height="30" rx="3" ry="3" style="fill:#90caf9; stroke:#444; stroke-width:1"></rect>
                   <title>const depd = require('depd')('egg-logger')</title>
            <text x="65" y="327.5" font-family="monospace" font-size="13" fill="#222">
                <tspan x="65" y="327.5">const depd = require('depd')('egg-logger')</tspan>
            </text>
                   
                   
                </g>
                <g>
                   <rect x="50" y="356" width="342" height="30" rx="3" ry="3" style="fill:#90caf9; stroke:#444; stroke-width:1"></rect>
                   <title>const Transport = require('./transport')</title>
            <text x="65" y="376" font-family="monospace" font-size="13" fill="#222">
                <tspan x="65" y="376">const Transport = require('./transport')</tspan>
            </text>
                   
                   
                </g>
                <g>
                   <rect x="50" y="404.5" width="287.4" height="30" rx="3" ry="3" style="fill:#90caf9; stroke:#444; stroke-width:1"></rect>
                   <title>const utils = require('../utils')</title>
            <text x="65" y="424.5" font-family="monospace" font-size="13" fill="#222">
                <tspan x="65" y="424.5">const utils = require('../utils')</tspan>
            </text>
                   
                   
                </g>
            <g>
                <rect x="50" y="468" width="346.4" height="30" style="fill:#80cbc4; stroke:#444; stroke-width:1"></rect>
                    
                <line x1="60" y1="468" x2="60" y2="498" style="fill:#80cbc4; stroke:#444; stroke-width:1"></line>
                <line x1="386.4" y1="468" x2="386.4" y2="498" style="fill:#80cbc4; stroke:#444; stroke-width:1"></line>
             
                <title>class FileTransport  extends Transport</title>
            <text x="75" y="488" font-family="monospace" font-size="13" fill="#222">
                <tspan x="75" y="488">class FileTransport  extends Transport</tspan>
            </text>
                
            </g>
            <g>
                <rect x="87" y="516.5" width="206" height="30" style="fill:#a5d6a7; stroke:#444; stroke-width:1"></rect>
                    
                <line x1="97" y1="516.5" x2="97" y2="546.5" style="fill:#a5d6a7; stroke:#444; stroke-width:1"></line>
                <line x1="283" y1="516.5" x2="283" y2="546.5" style="fill:#a5d6a7; stroke:#444; stroke-width:1"></line>
             
                <title>constructor(options)</title>
            <text x="112" y="536.5" font-family="monospace" font-size="13" fill="#222">
                <tspan x="112" y="536.5">constructor(options)</tspan>
            </text>
                
            </g>
                <g>
                   <rect x="124" y="565" width="139.2" height="30" rx="2" ry="2" style="fill:#C5E1A5; stroke:#444; stroke-width:1"></rect>
                   <title>super(options)</title>
            <text x="139" y="585" font-family="monospace" font-size="13" fill="#222">
                <tspan x="139" y="585">super(options)</tspan>
            </text>
                   
                   
                </g>
                <g>
                   <rect x="124" y="613.5" width="443.4" height="30" rx="2" ry="2" style="fill:#C5E1A5; stroke:#444; stroke-width:1"></rect>
                   <title>assert(this.options.file, 'should pass options.file')</title>
            <text x="139" y="633.5" font-family="monospace" font-size="13" fill="#222">
                <tspan x="139" y="633.5">assert(this.options.file, 'should pass options.fil...</tspan>
            </text>
                   
                   
                </g>
                <g>
                   <rect x="124" y="662" width="178.2" height="30" rx="3" ry="3" style="fill:#90caf9; stroke:#444; stroke-width:1"></rect>
                   <title>this._stream = null</title>
            <text x="139" y="682" font-family="monospace" font-size="13" fill="#222">
                <tspan x="139" y="682">this._stream = null</tspan>
            </text>
                   
                   
                </g>
                <g>
                   <rect x="124" y="710.5" width="131.39999999999998" height="30" rx="2" ry="2" style="fill:#C5E1A5; stroke:#444; stroke-width:1"></rect>
                   <title>this.reload()</title>
            <text x="139" y="730.5" font-family="monospace" font-size="13" fill="#222">
                <tspan x="139" y="730.5">this.reload()</tspan>
            </text>
                   
                   
                </g>
            <g>
                <rect x="87" y="774" width="128" height="30" style="fill:#a5d6a7; stroke:#444; stroke-width:1"></rect>
                    
                <line x1="97" y1="774" x2="97" y2="804" style="fill:#a5d6a7; stroke:#444; stroke-width:1"></line>
                <line x1="205" y1="774" x2="205" y2="804" style="fill:#a5d6a7; stroke:#444; stroke-width:1"></line>
             
                <title>defaults()</title>
            <text x="112" y="794" font-family="monospace" font-size="13" fill="#222">
                <tspan x="112" y="794">defaults()</tspan>
            </text>
                
            </g>
            <g>
                <rect x="124" y="822.5" width="435.59999999999997" height="30" rx="3" ry="3" style="fill:#90caf9; stroke:#444; stroke-width:1"></rect>
                
                <line x1="559.5999999999999" y1="832.5" x2="564.5999999999999" y2="832.5" style="fill:#a5d6a7; stroke:#444; stroke-width:1"></line>
                
                <line x1="559.5999999999999" y1="842.5" x2="564.5999999999999" y2="842.5" style="fill:#a5d6a7; stroke:#444; stroke-width:1"></line>

                <path d="M564.5999999999999, 826.5 L580.5999999999999, 837.5 L564.5999999999999, 848.5 Z" fill="#a5d6a7" stroke="#444" stroke-width="1"></path>
                             
                <title>return utils.assign(super.defaults, {
  file: null,
  level: 'INFO'
})</title>
            <text x="139" y="842.5" font-family="monospace" font-size="13" fill="#222">
                <tspan x="139" y="842.5">return utils.assign(super.defaults, {
  file: null...</tspan>
            </text>
                
            </g>
                <g>
                   <rect x="161" y="871" width="53.4" height="30" rx="3" ry="3" style="fill:#90caf9; stroke:#444; stroke-width:1"></rect>
                   <title>{*}</title>
            <text x="176" y="891" font-family="monospace" font-size="13" fill="#222">
                <tspan x="176" y="891">{*}</tspan>
            </text>
                   
                   
                </g>
                <g>
                   <rect x="198" y="919.5" width="108" height="30" rx="2" ry="2" style="fill:#90caf9; stroke:#444; stroke-width:1"></rect>
                   <title>file: null</title>
            <text x="213" y="939.5" font-family="monospace" font-size="13" fill="#222">
                <tspan x="213" y="939.5">file: null</tspan>
            </text>
                   
                   
                </g>
                <g>
                   <rect x="198" y="968" width="131.39999999999998" height="30" rx="2" ry="2" style="fill:#90caf9; stroke:#444; stroke-width:1"></rect>
                   <title>level: 'INFO'</title>
            <text x="213" y="988" font-family="monospace" font-size="13" fill="#222">
                <tspan x="213" y="988">level: 'INFO'</tspan>
            </text>
                   
                   
                </g>
            <g>
                <rect x="87" y="1031.5" width="112.4" height="30" style="fill:#a5d6a7; stroke:#444; stroke-width:1"></rect>
                    
                <line x1="97" y1="1031.5" x2="97" y2="1061.5" style="fill:#a5d6a7; stroke:#444; stroke-width:1"></line>
                <line x1="189.4" y1="1031.5" x2="189.4" y2="1061.5" style="fill:#a5d6a7; stroke:#444; stroke-width:1"></line>
             
                <title>reload()</title>
            <text x="112" y="1051.5" font-family="monospace" font-size="13" fill="#222">
                <tspan x="112" y="1051.5">reload()</tspan>
            </text>
                
            </g>
                <g>
                   <rect x="124" y="1080" width="178.2" height="30" rx="2" ry="2" style="fill:#C5E1A5; stroke:#444; stroke-width:1"></rect>
                   <title>this._closeStream()</title>
            <text x="139" y="1100" font-family="monospace" font-size="13" fill="#222">
                <tspan x="139" y="1100">this._closeStream()</tspan>
            </text>
                   
                   
                </g>
                <g>
                   <rect x="124" y="1128.5" width="303" height="30" rx="3" ry="3" style="fill:#90caf9; stroke:#444; stroke-width:1"></rect>
                   <title>this._stream = this._createStream()</title>
            <text x="139" y="1148.5" font-family="monospace" font-size="13" fill="#222">
                <tspan x="139" y="1148.5">this._stream = this._createStream()</tspan>
            </text>
                   
                   
                </g>
            <g>
                <rect x="87" y="1192" width="221.6" height="30" style="fill:#a5d6a7; stroke:#444; stroke-width:1"></rect>
                    
                <line x1="97" y1="1192" x2="97" y2="1222" style="fill:#a5d6a7; stroke:#444; stroke-width:1"></line>
                <line x1="298.6" y1="1192" x2="298.6" y2="1222" style="fill:#a5d6a7; stroke:#444; stroke-width:1"></line>
             
                <title>log(level, args, meta)</title>
            <text x="112" y="1212" font-family="monospace" font-size="13" fill="#222">
                <tspan x="112" y="1212">log(level, args, meta)</tspan>
            </text>
                
            </g><g>
            <rect x="154" y="1255.5" width="184.8" height="30" rx="3" ry="3" style="fill:#ce93d8; stroke:#444; stroke-width:1"></rect>                
            <polygon points="124,1270.5 154,1240.5 184,1270.5 154,1300.5" style="fill:#ce93d8; stroke:#444; stroke-width:1"></polygon>
            <title>(!this.writable)</title>
            <text x="199" y="1275.5" font-family="monospace" font-size="13" fill="#222">
                <tspan x="199" y="1275.5">(!this.writable)</tspan>
            </text>
            
            <text x="146.2" y="1275.5" font-family="monospace" font-size="13" fill="#222">if</text> <text x="161.8" y="1302.45" font-family="monospace" font-size="13" fill="#222">+</text> 
        </g>
                <g>
                   <rect x="174" y="1310.5" width="443.4" height="30" rx="3" ry="3" style="fill:#90caf9; stroke:#444; stroke-width:1"></rect>
                   <title>const err = Error(`${this.options.file} log stream had been closed`)</title>
            <text x="189" y="1330.5" font-family="monospace" font-size="13" fill="#222">
                <tspan x="189" y="1330.5">const err = Error(`${this.options.file} log stream...</tspan>
            </text>
                   
                   
                </g>
                <g>
                   <rect x="174" y="1359" width="217.2" height="30" rx="2" ry="2" style="fill:#C5E1A5; stroke:#444; stroke-width:1"></rect>
                   <title>console.error(err.stack)</title>
            <text x="189" y="1379" font-family="monospace" font-size="13" fill="#222">
                <tspan x="189" y="1379">console.error(err.stack)</tspan>
            </text>
                   
                   
                </g>
            <g>
                <rect x="174" y="1407.5" width="76.8" height="30" rx="3" ry="3" style="fill:#90caf9; stroke:#444; stroke-width:1"></rect>
                
                <line x1="250.8" y1="1417.5" x2="255.8" y2="1417.5" style="fill:#a5d6a7; stroke:#444; stroke-width:1"></line>
                
                <line x1="250.8" y1="1427.5" x2="255.8" y2="1427.5" style="fill:#a5d6a7; stroke:#444; stroke-width:1"></line>

                <path d="M255.8, 1411.5 L271.8, 1422.5 L255.8, 1433.5 Z" fill="#a5d6a7" stroke="#444" stroke-width="1"></path>
                             
                <title>return</title>
            <text x="189" y="1427.5" font-family="monospace" font-size="13" fill="#222">
                <tspan x="189" y="1427.5">return</tspan>
            </text>
                
            </g>
                <g>
                   <rect x="124" y="1457.5" width="342" height="30" rx="3" ry="3" style="fill:#90caf9; stroke:#444; stroke-width:1"></rect>
                   <title>const buf = super.log(level, args, meta)</title>
            <text x="139" y="1477.5" font-family="monospace" font-size="13" fill="#222">
                <tspan x="139" y="1477.5">const buf = super.log(level, args, meta)</tspan>
            </text>
                   
                   
                </g><g>
            <rect x="154" y="1521" width="153.6" height="30" rx="3" ry="3" style="fill:#ce93d8; stroke:#444; stroke-width:1"></rect>                
            <polygon points="124,1536 154,1506 184,1536 154,1566" style="fill:#ce93d8; stroke:#444; stroke-width:1"></polygon>
            <title>(buf.length)</title>
            <text x="199" y="1541" font-family="monospace" font-size="13" fill="#222">
                <tspan x="199" y="1541">(buf.length)</tspan>
            </text>
            
            <text x="146.2" y="1541" font-family="monospace" font-size="13" fill="#222">if</text> <text x="161.8" y="1567.95" font-family="monospace" font-size="13" fill="#222">+</text> 
        </g>
                <g>
                   <rect x="174" y="1576" width="154.8" height="30" rx="2" ry="2" style="fill:#C5E1A5; stroke:#444; stroke-width:1"></rect>
                   <title>this._write(buf)</title>
            <text x="189" y="1596" font-family="monospace" font-size="13" fill="#222">
                <tspan x="189" y="1596">this._write(buf)</tspan>
            </text>
                   
                   
                </g>
            <g>
                <rect x="87" y="1641" width="104.6" height="30" style="fill:#a5d6a7; stroke:#444; stroke-width:1"></rect>
                    
                <line x1="97" y1="1641" x2="97" y2="1671" style="fill:#a5d6a7; stroke:#444; stroke-width:1"></line>
                <line x1="181.6" y1="1641" x2="181.6" y2="1671" style="fill:#a5d6a7; stroke:#444; stroke-width:1"></line>
             
                <title>close()</title>
            <text x="112" y="1661" font-family="monospace" font-size="13" fill="#222">
                <tspan x="112" y="1661">close()</tspan>
            </text>
                
            </g>
                <g>
                   <rect x="124" y="1689.5" width="178.2" height="30" rx="2" ry="2" style="fill:#C5E1A5; stroke:#444; stroke-width:1"></rect>
                   <title>this._closeStream()</title>
            <text x="139" y="1709.5" font-family="monospace" font-size="13" fill="#222">
                <tspan x="139" y="1709.5">this._closeStream()</tspan>
            </text>
                   
                   
                </g>
            <g>
                <rect x="87" y="1753" width="89" height="30" style="fill:#a5d6a7; stroke:#444; stroke-width:1"></rect>
                    
                <line x1="97" y1="1753" x2="97" y2="1783" style="fill:#a5d6a7; stroke:#444; stroke-width:1"></line>
                <line x1="166" y1="1753" x2="166" y2="1783" style="fill:#a5d6a7; stroke:#444; stroke-width:1"></line>
             
                <title>end()</title>
            <text x="112" y="1773" font-family="monospace" font-size="13" fill="#222">
                <tspan x="112" y="1773">end()</tspan>
            </text>
                
            </g>
                <g>
                   <rect x="124" y="1801.5" width="443.4" height="30" rx="2" ry="2" style="fill:#C5E1A5; stroke:#444; stroke-width:1"></rect>
                   <title>depd('transport.end() is deprecated, use transport.close()')</title>
            <text x="139" y="1821.5" font-family="monospace" font-size="13" fill="#222">
                <tspan x="139" y="1821.5">depd('transport.end() is deprecated, use transport...</tspan>
            </text>
                   
                   
                </g>
                <g>
                   <rect x="124" y="1850" width="123.6" height="30" rx="2" ry="2" style="fill:#C5E1A5; stroke:#444; stroke-width:1"></rect>
                   <title>this.close()</title>
            <text x="139" y="1870" font-family="monospace" font-size="13" fill="#222">
                <tspan x="139" y="1870">this.close()</tspan>
            </text>
                   
                   
                </g>
            <g>
                <rect x="87" y="1913.5" width="135.8" height="30" style="fill:#a5d6a7; stroke:#444; stroke-width:1"></rect>
                    
                <line x1="97" y1="1913.5" x2="97" y2="1943.5" style="fill:#a5d6a7; stroke:#444; stroke-width:1"></line>
                <line x1="212.8" y1="1913.5" x2="212.8" y2="1943.5" style="fill:#a5d6a7; stroke:#444; stroke-width:1"></line>
             
                <title>_write(buf)</title>
            <text x="112" y="1933.5" font-family="monospace" font-size="13" fill="#222">
                <tspan x="112" y="1933.5">_write(buf)</tspan>
            </text>
                
            </g>
                <g>
                   <rect x="124" y="1962" width="209.4" height="30" rx="2" ry="2" style="fill:#C5E1A5; stroke:#444; stroke-width:1"></rect>
                   <title>this._stream.write(buf)</title>
            <text x="139" y="1982" font-family="monospace" font-size="13" fill="#222">
                <tspan x="139" y="1982">this._stream.write(buf)</tspan>
            </text>
                   
                   
                </g>
            <g>
                <rect x="87" y="2025.5" width="128" height="30" style="fill:#a5d6a7; stroke:#444; stroke-width:1"></rect>
                    
                <line x1="97" y1="2025.5" x2="97" y2="2055.5" style="fill:#a5d6a7; stroke:#444; stroke-width:1"></line>
                <line x1="205" y1="2025.5" x2="205" y2="2055.5" style="fill:#a5d6a7; stroke:#444; stroke-width:1"></line>
             
                <title>writable()</title>
            <text x="112" y="2045.5" font-family="monospace" font-size="13" fill="#222">
                <tspan x="112" y="2045.5">writable()</tspan>
            </text>
                
            </g>
            <g>
                <rect x="124" y="2074" width="443.4" height="30" rx="3" ry="3" style="fill:#90caf9; stroke:#444; stroke-width:1"></rect>
                
                <line x1="567.4" y1="2084" x2="572.4" y2="2084" style="fill:#a5d6a7; stroke:#444; stroke-width:1"></line>
                
                <line x1="567.4" y1="2094" x2="572.4" y2="2094" style="fill:#a5d6a7; stroke:#444; stroke-width:1"></line>

                <path d="M572.4, 2078 L588.4, 2089 L572.4, 2100 Z" fill="#a5d6a7" stroke="#444" stroke-width="1"></path>
                             
                <title>return this._stream &amp;&amp; !this._stream.closed &amp;&amp; this._stream.writable &amp;&amp; !this._stream.destroyed</title>
            <text x="139" y="2094" font-family="monospace" font-size="13" fill="#222">
                <tspan x="139" y="2094">return this._stream &amp;&amp; !this._stream.closed &amp;&amp; thi...</tspan>
            </text>
                
            </g>
            <g>
                <rect x="87" y="2137.5" width="167" height="30" style="fill:#a5d6a7; stroke:#444; stroke-width:1"></rect>
                    
                <line x1="97" y1="2137.5" x2="97" y2="2167.5" style="fill:#a5d6a7; stroke:#444; stroke-width:1"></line>
                <line x1="244" y1="2137.5" x2="244" y2="2167.5" style="fill:#a5d6a7; stroke:#444; stroke-width:1"></line>
             
                <title>_createStream()</title>
            <text x="112" y="2157.5" font-family="monospace" font-size="13" fill="#222">
                <tspan x="112" y="2157.5">_createStream()</tspan>
            </text>
                
            </g>
                <g>
                   <rect x="124" y="2186" width="373.2" height="30" rx="2" ry="2" style="fill:#C5E1A5; stroke:#444; stroke-width:1"></rect>
                   <title>mkdirp.sync(path.dirname(this.options.file))</title>
            <text x="139" y="2206" font-family="monospace" font-size="13" fill="#222">
                <tspan x="139" y="2206">mkdirp.sync(path.dirname(this.options.file))</tspan>
            </text>
                   
                   
                </g>
                <g>
                   <rect x="124" y="2234.5" width="443.4" height="30" rx="3" ry="3" style="fill:#90caf9; stroke:#444; stroke-width:1"></rect>
                   <title>const stream = fs.createWriteStream(this.options.file, {*})</title>
            <text x="139" y="2254.5" font-family="monospace" font-size="13" fill="#222">
                <tspan x="139" y="2254.5">const stream = fs.createWriteStream(this.options.f...</tspan>
            </text>
                   
                   
                </g>
                <g>
                   <rect x="161" y="2283" width="53.4" height="30" rx="3" ry="3" style="fill:#90caf9; stroke:#444; stroke-width:1"></rect>
                   <title>{*}</title>
            <text x="176" y="2303" font-family="monospace" font-size="13" fill="#222">
                <tspan x="176" y="2303">{*}</tspan>
            </text>
                   
                   
                </g>
                <g>
                   <rect x="198" y="2331.5" width="108" height="30" rx="2" ry="2" style="fill:#90caf9; stroke:#444; stroke-width:1"></rect>
                   <title>flags: 'a'</title>
            <text x="213" y="2351.5" font-family="monospace" font-size="13" fill="#222">
                <tspan x="213" y="2351.5">flags: 'a'</tspan>
            </text>
                   
                   
                </g>
            <g>
                <rect x="124" y="2395" width="190.4" height="30" style="fill:#a5d6a7; stroke:#444; stroke-width:1"></rect>
                    
                <line x1="134" y1="2395" x2="134" y2="2425" style="fill:#a5d6a7; stroke:#444; stroke-width:1"></line>
                <line x1="304.4" y1="2395" x2="304.4" y2="2425" style="fill:#a5d6a7; stroke:#444; stroke-width:1"></line>
             
                <title>onError = (err) =&gt;</title>
            <text x="149" y="2415" font-family="monospace" font-size="13" fill="#222">
                <tspan x="149" y="2415">onError = (err) =&gt;</tspan>
            </text>
                
            </g>
                <g>
                   <rect x="161" y="2443.5" width="443.4" height="30" rx="2" ry="2" style="fill:#C5E1A5; stroke:#444; stroke-width:1"></rect>
                   <title>console.error('%s ERROR %s [egg-logger] [%s] %s', utility.logDate(','), process.pid, this.options.file, err.stack)</title>
            <text x="176" y="2463.5" font-family="monospace" font-size="13" fill="#222">
                <tspan x="176" y="2463.5">console.error('%s ERROR %s [egg-logger] [%s] %s', ...</tspan>
            </text>
                   
                   
                </g>
                <g>
                   <rect x="161" y="2492" width="131.39999999999998" height="30" rx="2" ry="2" style="fill:#C5E1A5; stroke:#444; stroke-width:1"></rect>
                   <title>this.reload()</title>
            <text x="176" y="2512" font-family="monospace" font-size="13" fill="#222">
                <tspan x="176" y="2512">this.reload()</tspan>
            </text>
                   
                   
                </g>
                <g>
                   <rect x="161" y="2540.5" width="443.4" height="30" rx="2" ry="2" style="fill:#C5E1A5; stroke:#444; stroke-width:1"></rect>
                   <title>console.warn('%s WARN %s [egg-logger] [%s] reloaded', utility.logDate(','), process.pid, this.options.file)</title>
            <text x="176" y="2560.5" font-family="monospace" font-size="13" fill="#222">
                <tspan x="176" y="2560.5">console.warn('%s WARN %s [egg-logger] [%s] reloade...</tspan>
            </text>
                   
                   
                </g>
                <g>
                   <rect x="124" y="2589" width="256.2" height="30" rx="2" ry="2" style="fill:#C5E1A5; stroke:#444; stroke-width:1"></rect>
                   <title>stream.once('error', onError)</title>
            <text x="139" y="2609" font-family="monospace" font-size="13" fill="#222">
                <tspan x="139" y="2609">stream.once('error', onError)</tspan>
            </text>
                   
                   
                </g>
                <g>
                   <rect x="124" y="2637.5" width="225" height="30" rx="3" ry="3" style="fill:#90caf9; stroke:#444; stroke-width:1"></rect>
                   <title>stream._onError = onError</title>
            <text x="139" y="2657.5" font-family="monospace" font-size="13" fill="#222">
                <tspan x="139" y="2657.5">stream._onError = onError</tspan>
            </text>
                   
                   
                </g>
            <g>
                <rect x="124" y="2686" width="131.39999999999998" height="30" rx="3" ry="3" style="fill:#90caf9; stroke:#444; stroke-width:1"></rect>
                
                <line x1="255.39999999999998" y1="2696" x2="260.4" y2="2696" style="fill:#a5d6a7; stroke:#444; stroke-width:1"></line>
                
                <line x1="255.39999999999998" y1="2706" x2="260.4" y2="2706" style="fill:#a5d6a7; stroke:#444; stroke-width:1"></line>

                <path d="M260.4, 2690 L276.4, 2701 L260.4, 2712 Z" fill="#a5d6a7" stroke="#444" stroke-width="1"></path>
                             
                <title>return stream</title>
            <text x="139" y="2706" font-family="monospace" font-size="13" fill="#222">
                <tspan x="139" y="2706">return stream</tspan>
            </text>
                
            </g>
            <g>
                <rect x="87" y="2749.5" width="159.2" height="30" style="fill:#a5d6a7; stroke:#444; stroke-width:1"></rect>
                    
                <line x1="97" y1="2749.5" x2="97" y2="2779.5" style="fill:#a5d6a7; stroke:#444; stroke-width:1"></line>
                <line x1="236.2" y1="2749.5" x2="236.2" y2="2779.5" style="fill:#a5d6a7; stroke:#444; stroke-width:1"></line>
             
                <title>_closeStream()</title>
            <text x="112" y="2769.5" font-family="monospace" font-size="13" fill="#222">
                <tspan x="112" y="2769.5">_closeStream()</tspan>
            </text>
                
            </g><g>
            <rect x="154" y="2813" width="169.2" height="30" rx="3" ry="3" style="fill:#ce93d8; stroke:#444; stroke-width:1"></rect>                
            <polygon points="124,2828 154,2798 184,2828 154,2858" style="fill:#ce93d8; stroke:#444; stroke-width:1"></polygon>
            <title>(this._stream)</title>
            <text x="199" y="2833" font-family="monospace" font-size="13" fill="#222">
                <tspan x="199" y="2833">(this._stream)</tspan>
            </text>
            
            <text x="146.2" y="2833" font-family="monospace" font-size="13" fill="#222">if</text> <text x="161.8" y="2859.95" font-family="monospace" font-size="13" fill="#222">+</text> 
        </g>
                <g>
                   <rect x="174" y="2868" width="170.4" height="30" rx="2" ry="2" style="fill:#C5E1A5; stroke:#444; stroke-width:1"></rect>
                   <title>this._stream.end()</title>
            <text x="189" y="2888" font-family="monospace" font-size="13" fill="#222">
                <tspan x="189" y="2888">this._stream.end()</tspan>
            </text>
                   
                   
                </g>
                <g>
                   <rect x="174" y="2916.5" width="443.4" height="30" rx="2" ry="2" style="fill:#C5E1A5; stroke:#444; stroke-width:1"></rect>
                   <title>this._stream.removeListener('error', this._stream._onError)</title>
            <text x="189" y="2936.5" font-family="monospace" font-size="13" fill="#222">
                <tspan x="189" y="2936.5">this._stream.removeListener('error', this._stream....</tspan>
            </text>
                   
                   
                </g>
                <g>
                   <rect x="174" y="2965" width="178.2" height="30" rx="3" ry="3" style="fill:#90caf9; stroke:#444; stroke-width:1"></rect>
                   <title>this._stream = null</title>
            <text x="189" y="2985" font-family="monospace" font-size="13" fill="#222">
                <tspan x="189" y="2985">this._stream = null</tspan>
            </text>
                   
                   
                </g>
                <g>
                   <rect x="50" y="3015" width="264" height="30" rx="3" ry="3" style="fill:#90caf9; stroke:#444; stroke-width:1"></rect>
                   <title>module.exports = FileTransport</title>
            <text x="65" y="3035" font-family="monospace" font-size="13" fill="#222">
                <tspan x="65" y="3035">module.exports = FileTransport</tspan>
            </text>
                   
                   
                </g>
            <g>
               <rect x="25" y="13.75" width="216.6" height="24" style="fill:#fff59d; stroke:#444; stroke-width:1"></rect>
               <circle cx="25" cy="25" r="15" style="fill:#fff59d; stroke:#444; stroke-width:1"></circle>
               <title>Program: source module</title>
            <text x="55" y="30" font-family="monospace" font-size="13" fill="#222">
                <tspan x="55" y="30">Program: source module</tspan>
            </text>
            </g>
            <g>
               <path d="M25, 40 L25 76 Q25 80
                29 80
                L42 80 " style="fill:none; stroke:#444; stroke-width:1"></path>
               <path d="M42, 77 L50, 80 L42, 83 Z" fill="#333"></path>
            </g>
            <g>
               <path d="M25, 40 L25 124.5 Q25 128.5
                29 128.5
                L42 128.5 " style="fill:none; stroke:#444; stroke-width:1"></path>
               <path d="M42, 125.5 L50, 128.5 L42, 131.5 Z" fill="#333"></path>
            </g>
            <g>
               <path d="M25, 40 L25 173 Q25 177
                29 177
                L42 177 " style="fill:none; stroke:#444; stroke-width:1"></path>
               <path d="M42, 174 L50, 177 L42, 180 Z" fill="#333"></path>
            </g>
            <g>
               <path d="M25, 40 L25 221.5 Q25 225.5
                29 225.5
                L42 225.5 " style="fill:none; stroke:#444; stroke-width:1"></path>
               <path d="M42, 222.5 L50, 225.5 L42, 228.5 Z" fill="#333"></path>
            </g>
            <g>
               <path d="M25, 40 L25 270 Q25 274
                29 274
                L42 274 " style="fill:none; stroke:#444; stroke-width:1"></path>
               <path d="M42, 271 L50, 274 L42, 277 Z" fill="#333"></path>
            </g>
            <g>
               <path d="M25, 40 L25 318.5 Q25 322.5
                29 322.5
                L42 322.5 " style="fill:none; stroke:#444; stroke-width:1"></path>
               <path d="M42, 319.5 L50, 322.5 L42, 325.5 Z" fill="#333"></path>
            </g>
            <g>
               <path d="M25, 40 L25 367 Q25 371
                29 371
                L42 371 " style="fill:none; stroke:#444; stroke-width:1"></path>
               <path d="M42, 368 L50, 371 L42, 374 Z" fill="#333"></path>
            </g>
            <g>
               <path d="M25, 40 L25 415.5 Q25 419.5
                29 419.5
                L42 419.5 " style="fill:none; stroke:#444; stroke-width:1"></path>
               <path d="M42, 416.5 L50, 419.5 L42, 422.5 Z" fill="#333"></path>
            </g>
            <g>
               <path d="M25, 40 L25 479 Q25 483
                29 483
                L42 483 " style="fill:none; stroke:#444; stroke-width:1"></path>
               <path d="M42, 480 L50, 483 L42, 486 Z" fill="#333"></path>
            </g>
            <g>
               <path d="M68.5, 498 L68.5 527.5 Q68.5 531.5
                72.5 531.5
                L79 531.5 " style="fill:none; stroke:#444; stroke-width:1"></path>
               <path d="M79, 528.5 L87, 531.5 L79, 534.5 Z" fill="#333"></path>
            </g>
            <g>
               <path d="M105.5, 546.5 L105.5 576 Q105.5 580
                109.5 580
                L116 580 " style="fill:none; stroke:#444; stroke-width:1"></path>
               <path d="M116, 577 L124, 580 L116, 583 Z" fill="#333"></path>
            </g>
            <g>
               <path d="M105.5, 546.5 L105.5 624.5 Q105.5 628.5
                109.5 628.5
                L116 628.5 " style="fill:none; stroke:#444; stroke-width:1"></path>
               <path d="M116, 625.5 L124, 628.5 L116, 631.5 Z" fill="#333"></path>
            </g>
            <g>
               <path d="M105.5, 546.5 L105.5 673 Q105.5 677
                109.5 677
                L116 677 " style="fill:none; stroke:#444; stroke-width:1"></path>
               <path d="M116, 674 L124, 677 L116, 680 Z" fill="#333"></path>
            </g>
            <g>
               <path d="M105.5, 546.5 L105.5 721.5 Q105.5 725.5
                109.5 725.5
                L116 725.5 " style="fill:none; stroke:#444; stroke-width:1"></path>
               <path d="M116, 722.5 L124, 725.5 L116, 728.5 Z" fill="#333"></path>
            </g>
            <g>
               <path d="M68.5, 498 L68.5 785 Q68.5 789
                72.5 789
                L79 789 " style="fill:none; stroke:#444; stroke-width:1"></path>
               <path d="M79, 786 L87, 789 L79, 792 Z" fill="#333"></path>
            </g>
            <g>
               <path d="M105.5, 804 L105.5 833.5 Q105.5 837.5
                109.5 837.5
                L116 837.5 " style="fill:none; stroke:#444; stroke-width:1"></path>
               <path d="M116, 834.5 L124, 837.5 L116, 840.5 Z" fill="#333"></path>
            </g>
            <g>
               <path d="M142.5, 852.5 L142.5 882 Q142.5 886
                146.5 886
                L153 886 " style="fill:none; stroke:#444; stroke-width:1"></path>
               <path d="M153, 883 L161, 886 L153, 889 Z" fill="#333"></path>
            </g>
            <g>
               <path d="M179.5, 901 L179.5 930.5 Q179.5 934.5
                183.5 934.5
                L198 934.5 " style="fill:none; stroke:#444; stroke-width:1"></path>
               false
            </g>
            <g>
               <path d="M179.5, 901 L179.5 979 Q179.5 983
                183.5 983
                L198 983 " style="fill:none; stroke:#444; stroke-width:1"></path>
               false
            </g>
            <g>
               <path d="M68.5, 498 L68.5 1042.5 Q68.5 1046.5
                72.5 1046.5
                L79 1046.5 " style="fill:none; stroke:#444; stroke-width:1"></path>
               <path d="M79, 1043.5 L87, 1046.5 L79, 1049.5 Z" fill="#333"></path>
            </g>
            <g>
               <path d="M105.5, 1061.5 L105.5 1091 Q105.5 1095
                109.5 1095
                L116 1095 " style="fill:none; stroke:#444; stroke-width:1"></path>
               <path d="M116, 1092 L124, 1095 L116, 1098 Z" fill="#333"></path>
            </g>
            <g>
               <path d="M105.5, 1061.5 L105.5 1139.5 Q105.5 1143.5
                109.5 1143.5
                L116 1143.5 " style="fill:none; stroke:#444; stroke-width:1"></path>
               <path d="M116, 1140.5 L124, 1143.5 L116, 1146.5 Z" fill="#333"></path>
            </g>
            <g>
               <path d="M68.5, 498 L68.5 1203 Q68.5 1207
                72.5 1207
                L79 1207 " style="fill:none; stroke:#444; stroke-width:1"></path>
               <path d="M79, 1204 L87, 1207 L79, 1210 Z" fill="#333"></path>
            </g>
            <g>
               <path d="M105.5, 1222 L105.5 1266.5 Q105.5 1270.5
                109.5 1270.5
                L116 1270.5 " style="fill:none; stroke:#444; stroke-width:1"></path>
               <path d="M116, 1267.5 L124, 1270.5 L116, 1273.5 Z" fill="#333"></path>
            </g>
            <g>
               <path d="M154, 1300.5 L154 1321.5 Q154 1325.5
                158 1325.5
                L166 1325.5 " style="fill:none; stroke:#444; stroke-width:1"></path>
               <path d="M166, 1322.5 L174, 1325.5 L166, 1328.5 Z" fill="#333"></path>
            </g>
            <g>
               <path d="M154, 1300.5 L154 1370 Q154 1374
                158 1374
                L166 1374 " style="fill:none; stroke:#444; stroke-width:1"></path>
               <path d="M166, 1371 L174, 1374 L166, 1377 Z" fill="#333"></path>
            </g>
            <g>
               <path d="M154, 1300.5 L154 1418.5 Q154 1422.5
                158 1422.5
                L166 1422.5 " style="fill:none; stroke:#444; stroke-width:1"></path>
               <path d="M166, 1419.5 L174, 1422.5 L166, 1425.5 Z" fill="#333"></path>
            </g>
            <g>
               <path d="M105.5, 1222 L105.5 1468.5 Q105.5 1472.5
                109.5 1472.5
                L116 1472.5 " style="fill:none; stroke:#444; stroke-width:1"></path>
               <path d="M116, 1469.5 L124, 1472.5 L116, 1475.5 Z" fill="#333"></path>
            </g>
            <g>
               <path d="M105.5, 1222 L105.5 1532 Q105.5 1536
                109.5 1536
                L116 1536 " style="fill:none; stroke:#444; stroke-width:1"></path>
               <path d="M116, 1533 L124, 1536 L116, 1539 Z" fill="#333"></path>
            </g>
            <g>
               <path d="M154, 1566 L154 1587 Q154 1591
                158 1591
                L166 1591 " style="fill:none; stroke:#444; stroke-width:1"></path>
               <path d="M166, 1588 L174, 1591 L166, 1594 Z" fill="#333"></path>
            </g>
            <g>
               <path d="M68.5, 498 L68.5 1652 Q68.5 1656
                72.5 1656
                L79 1656 " style="fill:none; stroke:#444; stroke-width:1"></path>
               <path d="M79, 1653 L87, 1656 L79, 1659 Z" fill="#333"></path>
            </g>
            <g>
               <path d="M105.5, 1671 L105.5 1700.5 Q105.5 1704.5
                109.5 1704.5
                L116 1704.5 " style="fill:none; stroke:#444; stroke-width:1"></path>
               <path d="M116, 1701.5 L124, 1704.5 L116, 1707.5 Z" fill="#333"></path>
            </g>
            <g>
               <path d="M68.5, 498 L68.5 1764 Q68.5 1768
                72.5 1768
                L79 1768 " style="fill:none; stroke:#444; stroke-width:1"></path>
               <path d="M79, 1765 L87, 1768 L79, 1771 Z" fill="#333"></path>
            </g>
            <g>
               <path d="M105.5, 1783 L105.5 1812.5 Q105.5 1816.5
                109.5 1816.5
                L116 1816.5 " style="fill:none; stroke:#444; stroke-width:1"></path>
               <path d="M116, 1813.5 L124, 1816.5 L116, 1819.5 Z" fill="#333"></path>
            </g>
            <g>
               <path d="M105.5, 1783 L105.5 1861 Q105.5 1865
                109.5 1865
                L116 1865 " style="fill:none; stroke:#444; stroke-width:1"></path>
               <path d="M116, 1862 L124, 1865 L116, 1868 Z" fill="#333"></path>
            </g>
            <g>
               <path d="M68.5, 498 L68.5 1924.5 Q68.5 1928.5
                72.5 1928.5
                L79 1928.5 " style="fill:none; stroke:#444; stroke-width:1"></path>
               <path d="M79, 1925.5 L87, 1928.5 L79, 1931.5 Z" fill="#333"></path>
            </g>
            <g>
               <path d="M105.5, 1943.5 L105.5 1973 Q105.5 1977
                109.5 1977
                L116 1977 " style="fill:none; stroke:#444; stroke-width:1"></path>
               <path d="M116, 1974 L124, 1977 L116, 1980 Z" fill="#333"></path>
            </g>
            <g>
               <path d="M68.5, 498 L68.5 2036.5 Q68.5 2040.5
                72.5 2040.5
                L79 2040.5 " style="fill:none; stroke:#444; stroke-width:1"></path>
               <path d="M79, 2037.5 L87, 2040.5 L79, 2043.5 Z" fill="#333"></path>
            </g>
            <g>
               <path d="M105.5, 2055.5 L105.5 2085 Q105.5 2089
                109.5 2089
                L116 2089 " style="fill:none; stroke:#444; stroke-width:1"></path>
               <path d="M116, 2086 L124, 2089 L116, 2092 Z" fill="#333"></path>
            </g>
            <g>
               <path d="M68.5, 498 L68.5 2148.5 Q68.5 2152.5
                72.5 2152.5
                L79 2152.5 " style="fill:none; stroke:#444; stroke-width:1"></path>
               <path d="M79, 2149.5 L87, 2152.5 L79, 2155.5 Z" fill="#333"></path>
            </g>
            <g>
               <path d="M105.5, 2167.5 L105.5 2197 Q105.5 2201
                109.5 2201
                L116 2201 " style="fill:none; stroke:#444; stroke-width:1"></path>
               <path d="M116, 2198 L124, 2201 L116, 2204 Z" fill="#333"></path>
            </g>
            <g>
               <path d="M105.5, 2167.5 L105.5 2245.5 Q105.5 2249.5
                109.5 2249.5
                L116 2249.5 " style="fill:none; stroke:#444; stroke-width:1"></path>
               <path d="M116, 2246.5 L124, 2249.5 L116, 2252.5 Z" fill="#333"></path>
            </g>
            <g>
               <path d="M142.5, 2264.5 L142.5 2294 Q142.5 2298
                146.5 2298
                L153 2298 " style="fill:none; stroke:#444; stroke-width:1"></path>
               <path d="M153, 2295 L161, 2298 L153, 2301 Z" fill="#333"></path>
            </g>
            <g>
               <path d="M179.5, 2313 L179.5 2342.5 Q179.5 2346.5
                183.5 2346.5
                L198 2346.5 " style="fill:none; stroke:#444; stroke-width:1"></path>
               false
            </g>
            <g>
               <path d="M105.5, 2167.5 L105.5 2406 Q105.5 2410
                109.5 2410
                L116 2410 " style="fill:none; stroke:#444; stroke-width:1"></path>
               <path d="M116, 2407 L124, 2410 L116, 2413 Z" fill="#333"></path>
            </g>
            <g>
               <path d="M142.5, 2425 L142.5 2454.5 Q142.5 2458.5
                146.5 2458.5
                L153 2458.5 " style="fill:none; stroke:#444; stroke-width:1"></path>
               <path d="M153, 2455.5 L161, 2458.5 L153, 2461.5 Z" fill="#333"></path>
            </g>
            <g>
               <path d="M142.5, 2425 L142.5 2503 Q142.5 2507
                146.5 2507
                L153 2507 " style="fill:none; stroke:#444; stroke-width:1"></path>
               <path d="M153, 2504 L161, 2507 L153, 2510 Z" fill="#333"></path>
            </g>
            <g>
               <path d="M142.5, 2425 L142.5 2551.5 Q142.5 2555.5
                146.5 2555.5
                L153 2555.5 " style="fill:none; stroke:#444; stroke-width:1"></path>
               <path d="M153, 2552.5 L161, 2555.5 L153, 2558.5 Z" fill="#333"></path>
            </g>
            <g>
               <path d="M105.5, 2167.5 L105.5 2600 Q105.5 2604
                109.5 2604
                L116 2604 " style="fill:none; stroke:#444; stroke-width:1"></path>
               <path d="M116, 2601 L124, 2604 L116, 2607 Z" fill="#333"></path>
            </g>
            <g>
               <path d="M105.5, 2167.5 L105.5 2648.5 Q105.5 2652.5
                109.5 2652.5
                L116 2652.5 " style="fill:none; stroke:#444; stroke-width:1"></path>
               <path d="M116, 2649.5 L124, 2652.5 L116, 2655.5 Z" fill="#333"></path>
            </g>
            <g>
               <path d="M105.5, 2167.5 L105.5 2697 Q105.5 2701
                109.5 2701
                L116 2701 " style="fill:none; stroke:#444; stroke-width:1"></path>
               <path d="M116, 2698 L124, 2701 L116, 2704 Z" fill="#333"></path>
            </g>
            <g>
               <path d="M68.5, 498 L68.5 2760.5 Q68.5 2764.5
                72.5 2764.5
                L79 2764.5 " style="fill:none; stroke:#444; stroke-width:1"></path>
               <path d="M79, 2761.5 L87, 2764.5 L79, 2767.5 Z" fill="#333"></path>
            </g>
            <g>
               <path d="M105.5, 2779.5 L105.5 2824 Q105.5 2828
                109.5 2828
                L116 2828 " style="fill:none; stroke:#444; stroke-width:1"></path>
               <path d="M116, 2825 L124, 2828 L116, 2831 Z" fill="#333"></path>
            </g>
            <g>
               <path d="M154, 2858 L154 2879 Q154 2883
                158 2883
                L166 2883 " style="fill:none; stroke:#444; stroke-width:1"></path>
               <path d="M166, 2880 L174, 2883 L166, 2886 Z" fill="#333"></path>
            </g>
            <g>
               <path d="M154, 2858 L154 2927.5 Q154 2931.5
                158 2931.5
                L166 2931.5 " style="fill:none; stroke:#444; stroke-width:1"></path>
               <path d="M166, 2928.5 L174, 2931.5 L166, 2934.5 Z" fill="#333"></path>
            </g>
            <g>
               <path d="M154, 2858 L154 2976 Q154 2980
                158 2980
                L166 2980 " style="fill:none; stroke:#444; stroke-width:1"></path>
               <path d="M166, 2977 L174, 2980 L166, 2983 Z" fill="#333"></path>
            </g>
            <g>
               <path d="M25, 40 L25 3026 Q25 3030
                29 3030
                L42 3030 " style="fill:none; stroke:#444; stroke-width:1"></path>
               <path d="M42, 3027 L50, 3030 L42, 3033 Z" fill="#333"></path>
            </g>
            </svg>