
                <svg xmlns="http://www.w3.org/2000/svg" xmlns:xlink="http://www.w3.org/1999/xlink" width="391" height="232" shape-rendering="optimizeSpeed">
                
                <g>
                   <rect x="50" y="65" width="295.2" height="30" rx="3" ry="3" style="fill:#90caf9; stroke:#444; stroke-width:1"></rect>
                   <title>const Logger = require('./logger')</title>
            <text x="65" y="85" font-family="monospace" font-size="13" fill="#222">
                <tspan x="65" y="85">const Logger = require('./logger')</tspan>
            </text>
                   
                   
                </g>
            <g>
                <rect x="50" y="128.5" width="315.2" height="30" style="fill:#80cbc4; stroke:#444; stroke-width:1"></rect>
                    
                <line x1="60" y1="128.5" x2="60" y2="158.5" style="fill:#80cbc4; stroke:#444; stroke-width:1"></line>
                <line x1="355.2" y1="128.5" x2="355.2" y2="158.5" style="fill:#80cbc4; stroke:#444; stroke-width:1"></line>
             
                <title>class CustomLogger  extends Logger</title>
            <text x="75" y="148.5" font-family="monospace" font-size="13" fill="#222">
                <tspan x="75" y="148.5">class CustomLogger  extends Logger</tspan>
            </text>
                
            </g>
                <g>
                   <rect x="50" y="177" width="256.2" height="30" rx="3" ry="3" style="fill:#90caf9; stroke:#444; stroke-width:1"></rect>
                   <title>module.exports = CustomLogger</title>
            <text x="65" y="197" font-family="monospace" font-size="13" fill="#222">
                <tspan x="65" y="197">module.exports = CustomLogger</tspan>
            </text>
                   
                   
                </g>
            <g>
               <rect x="25" y="13.75" width="216.6" height="24" style="fill:#fff59d; stroke:#444; stroke-width:1"></rect>
               <circle cx="25" cy="25" r="15" style="fill:#fff59d; stroke:#444; stroke-width:1"></circle>
               <title>Program: source module</title>
            <text x="55" y="30" font-family="monospace" font-size="13" fill="#222">
                <tspan x="55" y="30">Program: source module</tspan>
            </text>
            </g>
            <g>
               <path d="M25, 40 L25 76 Q25 80
                29 80
                L42 80 " style="fill:none; stroke:#444; stroke-width:1"></path>
               <path d="M42, 77 L50, 80 L42, 83 Z" fill="#333"></path>
            </g>
            <g>
               <path d="M25, 40 L25 139.5 Q25 143.5
                29 143.5
                L42 143.5 " style="fill:none; stroke:#444; stroke-width:1"></path>
               <path d="M42, 140.5 L50, 143.5 L42, 146.5 Z" fill="#333"></path>
            </g>
            <g>
               <path d="M25, 40 L25 188 Q25 192
                29 192
                L42 192 " style="fill:none; stroke:#444; stroke-width:1"></path>
               <path d="M42, 189 L50, 192 L42, 195 Z" fill="#333"></path>
            </g>
            </svg>